<?xml version='1.0' encoding='UTF-8' standalone='no'?>
<!-- Created with Fritzing (http://www.fritzing.org/) -->
<svg xmlns:svg='http://www.w3.org/2000/svg' xmlns='http://www.w3.org/2000/svg' version='1.2' baseProfile='tiny' x='0in' y='0in' width='5.2364in' height='3.45135in' viewBox='0 0 377.021 248.497' >
<path stroke='#000000' stroke-width='3' stroke-linecap='round' stroke-linejoin='round' fill='none' d='M95.269,114.276L100.269,114.276' />
<path stroke='#ff0000' stroke-width='3' stroke-linecap='round' stroke-linejoin='round' fill='none' d='M95.269,107.096L100.269,107.096' />
<g partID='110250'><g transform='translate(0,96.6256)' ><g  id="breadboard">
 <rect  height="2.998" id="connector0pin" fill="none" x="95" y="16.158" width="1.256"/>
 <rect  height="3" id="connector1pin" fill="none" x="95" y="8.95799" width="1.256"/>
 <g  id="connector0leg" stroke-width="3" y1="17.65" y2="17.65" stroke-linecap="round" x1="95.269" x2="100.269" fill="none" stroke="#000000"/>
 <g  id="connector1leg" stroke-width="3" y1="10.47" y2="10.47" stroke-linecap="round" x1="95.269" x2="100.269" fill="none" stroke="#FF0000"/>
 <g >
  <g >
   <path  d="M9.572,13.877l14.457,0c0.312,0,0.566,-0.255,0.566,-0.566999L24.595,5.09099c0,-0.312,-0.255,-0.566999,-0.566,-0.566999l-7.229,0L9.572,4.52399c-0.312,0,-0.566,0.255,-0.566,0.566999l0,8.21899C9.006,13.623,9.261,13.877,9.572,13.877zM9.876,5.18799c0,-0.304,0.248,-0.551999,0.552,-0.551999l6.373,0l6.373,0c0.304,0,0.552,0.248,0.552,0.551999l0,8.02499c0,0.304,-0.248,0.551999,-0.552,0.551999L10.428,13.765c-0.304,0,-0.552,-0.248,-0.552,-0.551999L9.876,5.18799z" fill="#939393"/>
   <path  d="M10.428,13.765l6.373,0l6.373,0c0.304,0,0.552,-0.248,0.552,-0.551999L23.726,5.18799c0,-0.304,-0.248,-0.551999,-0.552,-0.551999l-6.373,0l-6.373,0c-0.304,0,-0.552,0.248,-0.552,0.551999l0,8.02499C9.876,13.517,10.124,13.765,10.428,13.765z" fill="#B2B2B2"/>
   <path  d="M11.673,13.676l5.128,0l5.128,0c0.28,0,0.51,-0.229,0.51,-0.509999l0,-7.61999c0,-0.281,-0.229,-0.509999,-0.51,-0.509999l-3.981,0c0.109,0.0939999,0.186,0.232,0.186,0.395999l0,6.86499c0,0.281,-0.21,0.509999,-0.466,0.509999l-0.866,0l-2.474,0c-0.256,0,-0.466,-0.229,-0.466,-0.509999L13.862,5.43299c0,-0.164,0.076,-0.303,0.186,-0.395999l-2.374,0c-0.28,0,-0.51,0.229,-0.51,0.509999l0,7.61999C11.163,13.448,11.393,13.676,11.673,13.676z" fill="#E6E6E6"/>
   <path  opacity="0.9" d="M19.241,5.75899c0,-0.299,-0.199,-0.541999,-0.442,-0.541999l2.173,0c0.244,0,0.443,0.243,0.443,0.541999l0,7.27699c0,0.299,-0.199,0.541999,-0.443,0.541999l-2.173,0c0.243,0,0.442,-0.243,0.442,-0.541999L19.241,5.75899z" fill="#FFFFFF"/>
  </g>
  <rect  height="1.547" opacity="0.1" x="9.017" y="4.56399" width="15.547"/>
 </g>
 <g >
  <path  d="M27.12,7.77799c-0.384,-0.017,-1.126,0.672999,-1.126,0.672999s-0.365,-0.742999,-1.012,-0.791999c-2.887,-0.216,-4.328,-0.119,-7.214,-0.119c-0.39,0,-0.813,-0.014,-0.996,0.490999C16.592,7.52599,16.17,7.53999,15.779,7.53999c-2.945,0,-4.413,-0.0859999,-7.36,0.137C7.704,7.72999,7.402,8.46699,7.402,8.46699S6.98,7.74899,6.55,7.76799c-0.519,0.00999998,-1.007,-0.029,-1.046,0.417999c-0.152,1.734,-0.295,2.528,-0.371,4.08299c-0.065,1.324,0.391,1.901,0.391,3.37799c0,1.017,0.904,2.17,1.673,2.17c2.716,0,4.074,-0.0619999,6.79,0.143c1.206,0.0909999,2.451,-0.142,2.786,-1.229c0.336,1.088,1.585,1.323,2.791,1.232c2.715,-0.204,4.072,-0.146,6.788,-0.146c0.768,0,1.538,-1.234,1.538,-2.171c0,0,0.683,-2.106,0.574,-3.67499S27.908,8.16999,27.908,8.16999C27.854,7.53099,27.305,7.78599,27.12,7.77799z" fill="#919191"/>
  <g >
   <path  d="M5.615,10.111c0.849,-0.252,1.446,-0.491999,1.446,-0.491999c-0.174,1.797,-0.276,2.646,0.001,4.16299c-0.52,-0.0919999,-1.006,-0.175,-1.477,-0.25C5.308,12.232,5.519,11.617,5.615,10.111z" fill="#F4F4F4"/>
   <path  d="M5.865,8.17699c0.747,0.0389999,1.273,0.641999,1.196,1.441c0,0,-0.598,0.24,-1.446,0.491999C5.665,9.33699,5.797,8.95099,5.865,8.17699z" fill="#B7B7B7"/>
   <path  d="M6.958,12.878c0.015,0.598999,0.095,0.821999,0.188,1.341c0.121,0.679999,-0.505,1.354,-1.258,1.407c0,-0.925999,-0.131,-1.295,-0.302,-2.095C6.145,13.532,6.971,13.42,6.958,12.878z" fill="#999999"/>
  </g>
  <g >
   <path  d="M7.822,9.56798c0.062,-0.834999,0.548,-1.543,1.064,-1.58c2.619,-0.189,3.907,-0.101,6.508,-0.101c0.515,0,0.932,0.674999,0.932,1.51c0,0,-0.187,1.416,-0.187,2.246s0.187,2.157,0.187,2.157c0,1.239,-0.417,2.104,-0.932,2.075c-2.601,-0.147,-3.902,-0.24,-6.503,-0.24c-0.513,0,-0.903,-0.706999,-1.001,-1.416C7.657,12.519,7.672,11.573,7.822,9.56798z" fill="#F4F4F4"/>
   <g >
    <path  d="M8.887,7.98799c2.619,-0.189,3.907,-0.101,6.508,-0.101c0.515,0,0.932,0.674999,0.932,1.51c0,0,-2.748,0.12,-4.409,0.12c-1.786,0,-4.095,0.0509999,-4.095,0.0509999C7.885,8.73299,8.37,8.02499,8.887,7.98799z" fill="#B7B7B7"/>
   </g>
   <g >
    <path  d="M8.892,15.635c2.601,0,3.902,0.0929999,6.503,0.24c0.515,0.029,0.932,-0.640999,0.932,-1.472c0,-0.245,0,-0.367999,0,-0.612999c-1.22,-0.395999,-2.746,-0.641999,-4.407,-0.642999c-1.797,-0.000999998,-3.009,0.598999,-4.171,-0.354999c-0.002,0.644999,0.067,0.878999,0.143,1.427C7.988,14.928,8.379,15.635,8.892,15.635z" fill="#999999"/>
   </g>
  </g>
  <g >
   <path  d="M27.931,10.108c-0.851,-0.254,-1.449,-0.493999,-1.449,-0.493999c0.171,1.797,0.272,2.65,0,4.16799c0.52,-0.0919999,1.004,-0.175,1.476,-0.25C28.232,12.232,28.028,11.614,27.931,10.108z" fill="#F4F4F4"/>
   <path  d="M27.683,8.17399c-0.747,0.0369999,-1.277,0.639999,-1.201,1.439c0,0,0.599,0.24,1.449,0.493999C27.881,9.33399,27.751,8.94799,27.683,8.17399z" fill="#B7B7B7"/>
   <path  d="M26.584,12.547c0.006,0.714999,-0.072,1.037,-0.184,1.672c-0.119,0.679999,0.506,1.354,1.259,1.407c0,-0.925999,0.129,-1.295,0.298,-2.095C27.535,13.532,26.589,13.198,26.584,12.547z" fill="#999999"/>
  </g>
  <g >
   <path  d="M25.722,9.56198c-0.062,-0.834999,-0.546,-1.541,-1.062,-1.578c-2.617,-0.187,-3.907,-0.0969998,-6.507,-0.0969998c-0.515,0,-0.928,0.674999,-0.928,1.51c0,0,0.169,1.522,0.169,2.435s-0.169,1.968,-0.169,1.968c0,0.831999,0.413,2.108,0.928,2.08c2.6,-0.144,3.901,-0.244,6.501,-0.244c0.513,0,0.904,-0.706999,0.999,-1.416C25.882,12.519,25.868,11.567,25.722,9.56198z" fill="#F4F4F4"/>
   <g >
    <path  d="M24.66,7.98399c-2.617,-0.187,-3.907,-0.0969998,-6.507,-0.0969998c-0.515,0,-0.928,0.674999,-0.928,1.51c0,0,2.744,0.12,4.405,0.12c1.786,0,4.091,0.0449999,4.091,0.0449999C25.66,8.72699,25.176,8.02099,24.66,7.98399z" fill="#B7B7B7"/>
   </g>
   <g >
    <path  d="M24.654,15.635c-2.6,0,-3.901,0.101,-6.501,0.244c-0.515,0.028,-0.928,-0.641999,-0.928,-1.474c0,-0.245,0,-0.367999,0,-0.613999c1.219,-0.394999,2.745,-0.641999,4.405,-0.643999c1.796,-0.002,3.2,0.333999,4.164,-0.566999c0.001,0.710999,-0.059,1.019,-0.142,1.639C25.559,14.928,25.167,15.635,24.654,15.635z" fill="#999999"/>
   </g>
  </g>
 </g>
 <g >
  <path  d="M60.123,7.34199L45.666,7.34199c-0.312,0,-0.566,0.255,-0.566,0.566999l0,8.21899c0,0.312,0.255,0.566999,0.566,0.566999l7.229,0l7.229,0c0.312,0,0.566,-0.255,0.566,-0.566999L60.69,7.90999C60.689,7.59699,60.435,7.34199,60.123,7.34199zM59.819,16.032c0,0.304,-0.248,0.551999,-0.552,0.551999l-6.373,0l-6.373,0c-0.304,0,-0.552,-0.248,-0.552,-0.551999L45.969,8.00599c0,-0.304,0.248,-0.551999,0.552,-0.551999l12.746,0c0.304,0,0.552,0.248,0.552,0.551999L59.819,16.032z" fill="#939393"/>
  <path  d="M59.268,7.45499l-6.373,0l-6.373,0c-0.304,0,-0.552,0.248,-0.552,0.551999l0,8.02499c0,0.304,0.248,0.551999,0.552,0.551999l6.373,0l6.373,0c0.304,0,0.552,-0.248,0.552,-0.551999L59.82,8.00599C59.819,7.70299,59.571,7.45499,59.268,7.45499z" fill="#B2B2B2"/>
  <path  d="M58.022,7.54299l-5.128,0l-5.128,0c-0.28,0,-0.51,0.229,-0.51,0.509999l0,7.61999c0,0.281,0.229,0.509999,0.51,0.509999l3.981,0c-0.109,-0.0939999,-0.186,-0.232,-0.186,-0.395999L51.561,8.92099c0,-0.281,0.21,-0.509999,0.466,-0.509999l0.866,0l2.474,0c0.256,0,0.466,0.229,0.466,0.509999l0,6.86499c0,0.164,-0.076,0.303,-0.186,0.395999l2.374,0c0.28,0,0.51,-0.229,0.51,-0.509999l0,-7.61999C58.532,7.77199,58.303,7.54299,58.022,7.54299z" fill="#E6E6E6"/>
  <path  opacity="0.9" d="M50.454,15.46c0,0.299,0.199,0.541999,0.442,0.541999l-2.173,0c-0.244,0,-0.443,-0.243,-0.443,-0.541999L48.28,8.18299c0,-0.299,0.199,-0.541999,0.443,-0.541999l2.173,0c-0.243,0,-0.442,0.243,-0.442,0.541999L50.454,15.46z" fill="#FFFFFF"/>
 </g>
 <rect  height="1.547" fill="none" x="45.132" y="15.109" width="15.547"/>
 <rect  height="1.547" opacity="0.1" x="5.382" y="15.109" width="22.592"/>
 <path  d="M5.67,151.871l0.06,0c-0.099,0,-0.195,-0.00699999,-0.293,-0.00999998C5.515,151.864,5.591,151.871,5.67,151.871z" fill="#353535"/>
 <path  d="M5.111,151.847c-0.021,-0.000999998,-0.041,-0.00399999,-0.062,-0.00599999C5.07,151.843,5.091,151.846,5.111,151.847z" fill="#353535"/>
 <path  opacity="0.35" d="M5.437,151.861c-0.108,-0.00399999,-0.219,-0.00499999,-0.325,-0.014C5.218,151.855,5.327,151.857,5.437,151.861z"/>
 <path  d="M70.727,148.251c-0.606,0.895999,-2.843,1.566,-5.498,1.566L5.729,149.817c-3.117,0,-5.666,-0.923999,-5.666,-2.052l0,0.124c0.36,2.076,2.42,3.72099,4.986,3.95099c0.021,0.002,0.041,0.00499999,0.062,0.00599999c0.106,0.00899999,0.217,0.00999998,0.325,0.014c0.098,0.003,0.194,0.00999998,0.293,0.00999998l59.469,0C67.893,151.871,70.159,150.315,70.727,148.251z" fill="#353535"/>
 <path  opacity="0.35" d="M70.727,148.251c-0.606,0.895999,-2.843,1.566,-5.498,1.566L5.729,149.817c-3.117,0,-5.666,-0.923999,-5.666,-2.052l0,0.124c0.36,2.076,2.42,3.72099,4.986,3.95099c0.021,0.002,0.041,0.00499999,0.062,0.00599999c0.106,0.00899999,0.217,0.00999998,0.325,0.014c0.098,0.003,0.194,0.00999998,0.293,0.00999998l59.469,0C67.893,151.871,70.159,150.315,70.727,148.251z"/>
 <g >
  <g >
   <path  d="M66.331,15.798c1.985,0,4.536,1.702,4.536,3.78299l0,127.662c0,2.545,-2.551,4.62699,-5.669,4.62699L5.67,151.87c-3.118,0,-5.669,-2.082,-5.669,-4.62699L0.001,19.582c0,-2.081,2.551,-3.78299,6.802,-3.78299L66.331,15.799z" fill="#353535"/>
   <path  d="M70.867,49.3939L0.001,49.3939L0.001,19.582c0,-2.08,2.551,-3.78299,6.802,-3.78299l59.528,0c1.985,0,4.536,1.703,4.536,3.78299L70.867,49.3939z" fill="#D18D52"/>
  </g>
  <path  opacity="0.15" d="M69.604,147.766c0,0.574999,-1.594,1.067,-3.783,1.237L65.821,17.89c2.189,0.139,3.783,0.540999,3.783,1.012L69.604,147.766z" fill="#FFFFFF"/>
  <path  opacity="0.15" d="M1.145,147.766c0,0.574999,1.594,1.067,3.783,1.237L4.928,17.89c-2.189,0.139,-3.783,0.540999,-3.783,1.012L1.145,147.766z" fill="#FFFFFF"/>
  <path  opacity="0.35" d="M1.145,18.89c0,-0.585999,2.464,-1.065,5.477,-1.065l57.507,0c3.013,0,5.477,0.478999,5.477,1.065l0,-0.218c0,-1.052,-2.464,-1.913,-5.477,-1.913L6.621,16.759c-3.013,0,-5.477,0.860999,-5.477,1.913L1.144,18.89z" fill="#FFFFFF"/>
  <g  opacity="0.2">
   <path  d="M69.604,18.521c0,0,0,128.894,0,130.529c0.628,-0.297,0.628,-0.297,1,-0.645999c0,-0.624999,0,-126.22,0,-126.681C70.604,20.658,69.897,19.162,69.604,18.521z"/>
  </g>
  <g  opacity="0.2">
   <path  d="M1.145,18.521c0,0,0,128.894,0,130.529c-0.628,-0.297,-0.628,-0.297,-1,-0.645999c0,-0.624999,0,-126.22,0,-126.681C0.145,20.658,0.852,19.162,1.145,18.521z"/>
  </g>
 </g>
 <path  stroke-width="3" d="M67.713,4.41499c14.469,0,13.856,13.249,27.556,13.249" fill="none" stroke="#000000"/>
 <path  stroke-width="3" d="M67.713,4.41699c17.259,0,16.104,6.03499,27.556,6.03499" fill="none" stroke="#FF0000"/>
 <g >
  <path  d="M42.569,14.396c0.384,0.017,1.126,-0.672999,1.126,-0.672999s0.365,0.742999,1.012,0.791999c2.887,0.216,4.328,0.119,7.214,0.119c0.39,0,0.813,0.014,0.996,-0.490999c0.181,0.504999,0.603,0.490999,0.993,0.490999c2.945,0,4.413,0.0859999,7.36,-0.137c0.715,-0.0539999,1.017,-0.790999,1.017,-0.790999s0.422,0.718999,0.853,0.698999c0.519,-0.00999998,1.007,0.029,1.046,-0.417999c0.152,-1.734,0.295,-2.528,0.371,-4.08299c0.065,-1.324,-0.391,-1.901,-0.391,-3.37799c0,-1.017,-0.904,-2.17,-1.673,-2.17c-2.716,0,-4.074,0.0619999,-6.79,-0.143c-1.206,-0.0909999,-2.451,0.142,-2.786,1.229c-0.336,-1.088,-1.585,-1.323,-2.791,-1.232c-2.715,0.204,-4.072,0.146,-6.788,0.146c-0.768,0,-1.538,1.234,-1.538,2.171c0,0,-0.683,2.106,-0.574,3.67499s0.556,3.80199,0.556,3.80199C41.836,14.643,42.385,14.388,42.569,14.396z" fill="#919191"/>
  <g >
   <path  d="M64.074,12.063c-0.849,0.252,-1.446,0.491999,-1.446,0.491999c0.174,-1.797,0.276,-2.646,-0.001,-4.16299c0.52,0.0919999,1.006,0.175,1.477,0.25C64.382,9.94198,64.171,10.557,64.074,12.063z" fill="#F4F4F4"/>
   <path  d="M63.824,13.997c-0.747,-0.0389999,-1.273,-0.641999,-1.196,-1.441c0,0,0.598,-0.24,1.446,-0.491999C64.024,12.836,63.893,13.223,63.824,13.997z" fill="#B7B7B7"/>
   <path  d="M62.731,9.29499c-0.015,-0.598999,-0.095,-0.821999,-0.188,-1.341c-0.121,-0.679999,0.505,-1.354,1.258,-1.407c0,0.925999,0.131,1.295,0.302,2.095C63.545,8.64199,62.719,8.75299,62.731,9.29499z" fill="#999999"/>
  </g>
  <g >
   <path  d="M61.867,12.606c-0.062,0.834999,-0.548,1.543,-1.064,1.58c-2.619,0.189,-3.907,0.101,-6.508,0.101c-0.515,0,-0.932,-0.674999,-0.932,-1.51c0,0,0.187,-1.416,0.187,-2.246s-0.187,-2.157,-0.187,-2.157c0,-1.239,0.417,-2.104,0.932,-2.075c2.601,0.147,3.902,0.24,6.503,0.24c0.513,0,0.903,0.706999,1.001,1.416C62.032,9.65498,62.018,10.601,61.867,12.606z" fill="#F4F4F4"/>
   <g >
    <path  d="M60.803,14.186c-2.619,0.189,-3.907,0.101,-6.508,0.101c-0.515,0,-0.932,-0.674999,-0.932,-1.51c0,0,2.748,-0.12,4.409,-0.12c1.786,0,4.095,-0.0509999,4.095,-0.0509999C61.805,13.441,61.319,14.149,60.803,14.186z" fill="#B7B7B7"/>
   </g>
   <g >
    <path  d="M60.798,6.53899c-2.601,0,-3.902,-0.0929999,-6.503,-0.24c-0.515,-0.029,-0.932,0.640999,-0.932,1.472c0,0.245,0,0.367999,0,0.612999c1.22,0.395999,2.746,0.641999,4.407,0.642999c1.797,0.000999998,3.009,-0.598999,4.171,0.354999c0.002,-0.644999,-0.067,-0.878999,-0.143,-1.427C61.701,7.24599,61.311,6.53899,60.798,6.53899z" fill="#999999"/>
   </g>
  </g>
  <g >
   <path  d="M41.759,12.066c0.851,0.254,1.449,0.493999,1.449,0.493999c-0.171,-1.797,-0.272,-2.65,0,-4.16799c-0.52,0.0919999,-1.004,0.175,-1.476,0.25C41.457,9.94198,41.661,10.56,41.759,12.066z" fill="#F4F4F4"/>
   <path  d="M42.007,14c0.747,-0.0369999,1.277,-0.639999,1.201,-1.439c0,0,-0.599,-0.24,-1.449,-0.493999C41.809,12.839,41.938,13.226,42.007,14z" fill="#B7B7B7"/>
   <path  d="M43.105,9.62598c-0.006,-0.714999,0.072,-1.037,0.184,-1.672c0.119,-0.679999,-0.506,-1.354,-1.259,-1.407c0,0.925999,-0.129,1.295,-0.298,2.095C42.154,8.64199,43.101,8.97599,43.105,9.62598z" fill="#999999"/>
  </g>
  <g >
   <path  d="M43.968,12.612c0.062,0.834999,0.546,1.541,1.062,1.578c2.617,0.187,3.907,0.0969998,6.507,0.0969998c0.515,0,0.928,-0.674999,0.928,-1.51c0,0,-0.169,-1.522,-0.169,-2.435s0.169,-1.968,0.169,-1.968c0,-0.831999,-0.413,-2.108,-0.928,-2.08c-2.6,0.144,-3.901,0.244,-6.501,0.244c-0.513,0,-0.904,0.706999,-0.999,1.416C43.808,9.65498,43.821,10.607,43.968,12.612z" fill="#F4F4F4"/>
   <g >
    <path  d="M45.029,14.19c2.617,0.187,3.907,0.0969998,6.507,0.0969998c0.515,0,0.928,-0.674999,0.928,-1.51c0,0,-2.744,-0.12,-4.405,-0.12c-1.786,0,-4.091,-0.0449999,-4.091,-0.0449999C44.029,13.447,44.514,14.153,45.029,14.19z" fill="#B7B7B7"/>
   </g>
   <g >
    <path  d="M45.035,6.53899c2.6,0,3.901,-0.101,6.501,-0.244c0.515,-0.028,0.928,0.641999,0.928,1.474c0,0.245,0,0.367999,0,0.613999c-1.219,0.394999,-2.745,0.641999,-4.405,0.643999c-1.796,0.002,-3.2,-0.333999,-4.164,0.566999c-0.001,-0.710999,0.059,-1.019,0.142,-1.639C44.131,7.24599,44.522,6.53899,45.035,6.53899z" fill="#999999"/>
   </g>
  </g>
 </g>
 <path  d="M67.753,6.91699c0,0,0,-3.56299,0,-4.47999C67.753,0.737999,66.587,0,61.496,0L9.354,0C4.263,0,3.097,0.737999,3.097,2.437c0,0.916999,0,4.47999,0,4.47999L67.753,6.91699z" fill="#262626"/>
 <path  opacity="0.35" d="M62.767,0.565999c3.609,0,4.257,0.860999,4.257,1.913l0,0.218c0,-0.585999,-1.447,-1.065,-4.257,-1.065L8.082,1.632c-2.81,0,-4.257,0.478999,-4.257,1.065L3.825,2.479c0,-1.052,0.647,-1.913,4.257,-1.913L62.767,0.565999z" fill="#FFFFFF"/>
 <path  opacity="0.15" d="M5.586,1.815c-1.152,0.188,-1.761,0.509999,-1.761,0.881999l0,3.81699l1.761,0L5.586,1.815z" fill="#FFFFFF"/>
 <path  opacity="0.15" d="M65.263,1.815c1.152,0.188,1.761,0.509999,1.761,0.881999l0,3.81699l-1.761,0L65.263,1.815z" fill="#FFFFFF"/>
 <g >
  <g transform="matrix(1, 0, 0, 1, 22.6406, 75.9354)">
   <text  font-family="Droid Sans" fill="#FFFFFF" font-size="22">9</text>
  </g>
  <g transform="matrix(1, 0, 0, 1, 36.5776, 75.9359)">
   <text  font-family="Droid Sans" fill="#FFFFFF" font-size="22">v</text>
  </g>
 </g>
</g>
</g></g><g partID='97610'><g transform='translate(134.753,148.744)' ><g xmlns="http://www.w3.org/2000/svg" id="breadboard">
 <g xmlns="http://www.w3.org/2000/svg">
  <polygon xmlns="http://www.w3.org/2000/svg" fill="#8C8C8C" points="14.8219,23.7449,14.8219,15.4706,16.9819,15.4706,16.9819,23.7449"/>
  <polygon xmlns="http://www.w3.org/2000/svg" fill="#8C8C8C" points="0.42192,8.27496,0.42192,0.00072,2.58048,0.00072,2.58048,8.27496"/>
  <polygon xmlns="http://www.w3.org/2000/svg" fill="#8C8C8C" points="14.8219,8.27568,14.8219,0,16.9819,0,16.9819,8.27568"/>
  <polygon xmlns="http://www.w3.org/2000/svg" fill="#8C8C8C" points="0.42264,23.7463,0.42264,15.4706,2.58192,15.4706,2.58192,23.7463"/>
  <rect xmlns="http://www.w3.org/2000/svg" height="17.6544" x="0.00864" y="3.04704" width="17.653"/>
  <path xmlns="http://www.w3.org/2000/svg" d="M17.6609,19.2614c0,0.79272,-0.64512,1.43928,-1.44,1.43928L1.44792,20.7007c-0.79272,0,-1.43928,-0.64656,-1.43928,-1.43928L0.00864,4.4856c0,-0.792,0.64656,-1.43856,1.43928,-1.43856l14.7751,0c0.79416,0,1.43784,0.64656,1.43784,1.43856L17.6609,19.2614L17.6609,19.2614z" fill="#999999"/>
  <circle xmlns="http://www.w3.org/2000/svg" cx="2.57976" cy="5.61816" r="1.52928"/>
  <circle xmlns="http://www.w3.org/2000/svg" cx="15.133" cy="5.6448" r="1.52928"/>
  <circle xmlns="http://www.w3.org/2000/svg" cx="15.1063" cy="18.198" r="1.52928"/>
  <circle xmlns="http://www.w3.org/2000/svg" cx="2.55312" cy="18.1699" r="1.52928"/>
  <circle xmlns="http://www.w3.org/2000/svg" cx="8.8344" cy="11.8735" r="5.148" fill="#3F3F3F"/>
  <linearGradient xmlns="http://www.w3.org/2000/svg" id="SVGID_1_" y1="-335.051" y2="-335.051" x1="-192.873" x2="-182.577" gradientUnits="userSpaceOnUse" gradientTransform="matrix(1 0 0 -1 273 -448.8574)">
   <stop xmlns="http://www.w3.org/2000/svg" offset="0" style="stop-color:#333333"/>
   <stop xmlns="http://www.w3.org/2000/svg" offset="1" style="stop-color:#3C3C3C"/>
  </linearGradient>
  <circle xmlns="http://www.w3.org/2000/svg" cx="8.8344" cy="11.8735" r="5.148" fill="url(#SVGID_1_)"/>
  <circle xmlns="http://www.w3.org/2000/svg" opacity="0.6" cx="8.9244" cy="12.4855" r="4.53024" enable-background="new    "/>
  <circle xmlns="http://www.w3.org/2000/svg" cx="8.84088" cy="11.9038" r="4.41504" fill="#735348"/>
  <path xmlns="http://www.w3.org/2000/svg" opacity="0.5" d="M2.38176,5.53824c0.03024,-0.072,0.08568,-0.12744,0.16416,-0.14112L2.39472,4.43376C2.33712,4.44312,2.27592,4.4352,2.21904,4.45248L2.2176,4.44816C1.8612,4.55832,1.5948,4.824,1.45872,5.16312L2.38176,5.53824z" fill="#FFFFFF" enable-background="new    "/>
  <path xmlns="http://www.w3.org/2000/svg" opacity="0.5" d="M14.9335,5.56416c0.02952,-0.07344,0.08496,-0.12888,0.16488,-0.14184l-0.14904,-0.96336c-0.05904,0.0108,-0.11952,0.00144,-0.1764,0.01872l-0.00216,-0.00504c-0.35496,0.10944,-0.62208,0.37512,-0.75816,0.71496L14.9335,5.56416z" fill="#FFFFFF" enable-background="new    "/>
  <path xmlns="http://www.w3.org/2000/svg" opacity="0.5" d="M14.909,18.1174c0.02952,-0.07344,0.08352,-0.1296,0.16344,-0.14184l-0.14904,-0.96264c-0.05904,0.0108,-0.11952,0.00144,-0.17712,0.01872l-0.00144,-0.0072c-0.35568,0.10944,-0.6228,0.37512,-0.75816,0.71568L14.909,18.1174z" fill="#FFFFFF" enable-background="new    "/>
  <path xmlns="http://www.w3.org/2000/svg" opacity="0.5" d="M2.35512,18.0907c0.02952,-0.07344,0.08496,-0.12672,0.16488,-0.1404l-0.1512,-0.96408c-0.05904,0.01224,-0.11952,0.00144,-0.1764,0.01944l-0.00144,-0.00504c-0.3564,0.108,-0.6228,0.37512,-0.76032,0.71424L2.35512,18.0907z" fill="#FFFFFF" enable-background="new    "/>
  <path xmlns="http://www.w3.org/2000/svg" opacity="0.6" d="M10.4206,7.78896c-0.342,-0.1332,-0.702,-0.22896,-1.08288,-0.27216c-0.94752,-0.10584,-1.85472,0.1044,-2.63016,0.53424L6.61104,8.3016c0.86616,-0.46296,1.87488,-0.67752,2.92464,-0.56016c0.32256,0.03744,0.63648,0.10944,0.93672,0.20448L10.4206,7.78896z" fill="#FFFFFF" enable-background="new    "/>
 </g>
</g>
</g></g><path stroke='#8c8c8c' stroke-width='2.0952' stroke-linecap='round' stroke-linejoin='round' fill='none' d='M136.269,180.123L136.269,179.075' />
<path stroke='#8c8c8c' stroke-width='2.0952' stroke-linecap='round' stroke-linejoin='round' fill='none' d='M136.269,206.833L136.269,207.88' />
<g partID='97070'><g transform='translate(139.901,178.028)' ><g transform='matrix(0,1,-1,0,0,0)'  ><g xmlns="http://www.w3.org/2000/svg" id="breadboard">
 <rect xmlns="http://www.w3.org/2000/svg" id="connector0pin" height="0.72" fill="none" x="0.36" y="2.5848" width="0.72"/>
 <rect xmlns="http://www.w3.org/2000/svg" id="connector1pin" height="0.72" fill="none" x="29.8202" y="2.5848" width="0.72"/>
 <line xmlns="http://www.w3.org/2000/svg" id="connector0leg" stroke-width="2.0952" y1="3.6324" y2="3.6324" stroke-linecap="round" x1="1.0476" x2="2.0952" fill="none" stroke="#8C8C8C"/>
 <line xmlns="http://www.w3.org/2000/svg" id="connector1leg" stroke-width="2.0952" y1="3.6324" y2="3.6324" stroke-linecap="round" x1="29.8526" x2="28.805" fill="none" stroke="#8C8C8C"/>
 <path xmlns="http://www.w3.org/2000/svg" stroke-width="2.0952" d="M1.0476,3.6324l28.3666,0" fill="none" stroke="#8C8C8C"/>
 <path xmlns="http://www.w3.org/2000/svg" id="body" d="M10.2478,0.49536c-0.36,-0.1656,-0.9792,-0.2952,-1.3752,-0.2952l-1.9872,0c-0.396,0,-0.72,0.324,-0.72,0.72l0,5.35608c0,0.39672,0.324,0.72,0.72,0.72l1.9872,0c0.396,0,1.0152,-0.13608,1.3752,-0.2952l0.072,-0.03528c0.36,-0.1656,0.9792,-0.2952,1.3752,-0.2952l7.1856,0c0.39672,0,1.01448,0.13608,1.37448,0.2952l0.07272,0.03528c0.36,0.1656,0.97776,0.2952,1.3752,0.2952l1.9872,0c0.39744,0,0.72,-0.32328,0.72,-0.72L24.4102,0.92016c0,-0.396,-0.32256,-0.72,-0.72,-0.72l-1.9872,0c-0.39744,0,-1.0152,0.1368,-1.3752,0.2952l-0.07272,0.036c-0.36,0.1656,-0.97776,0.2952,-1.37448,0.2952l-7.1856,0c-0.396,0,-1.0152,-0.1368,-1.3752,-0.2952L10.2478,0.49536z" fill="#D9B477"/>
 <rect xmlns="http://www.w3.org/2000/svg" id="gold_band" height="6.79536" fill="#ad9f4e" x="22.019" y="0.19368" width="0.70272"/>
 <rect xmlns="http://www.w3.org/2000/svg" id="band_rd_multiplier" height="5.5368" fill="#8a3d06" x="16.1726" y="0.82656" width="1.8504"/>
 <rect xmlns="http://www.w3.org/2000/svg" id="band_2_nd" height="5.5368" fill="#c40808" x="12.4726" y="0.82656" width="1.8504"/>
 <path xmlns="http://www.w3.org/2000/svg" id="band_1_st" d="M10.6286,0.63936c-0.1152,-0.036,-0.2232,-0.072,-0.3096,-0.1152l-0.072,-0.036c-0.36,-0.16488,-0.9792,-0.2952,-1.3752,-0.2952l-0.0864,0l0,6.79608l0.0864,0c0.396,0,1.0152,-0.13608,1.3752,-0.2952l0.072,-0.03528c0.0864,-0.04464,0.1944,-0.07992,0.3096,-0.1152L10.6286,0.63936z" fill="#c40808"/>
 <path xmlns="http://www.w3.org/2000/svg" id="Shadow" opacity="0.3" d="M23.711,4.0896L23.711,4.0896c0,0.37944,-0.13032,0.69912,-0.2952,0.69912l-1.9224,0c-0.38016,0,-0.97776,-0.05616,-1.33272,-0.1224L20.088,4.65048c-0.34488,-0.0648,-0.94896,-0.1224,-1.33344,-0.1224L11.808,4.52808c-0.3816,0,-0.9792,0.0576,-1.332,0.1224l-0.072,0.01512c-0.3456,0.06552,-0.9432,0.1224,-1.332,0.1224l-0.3168,0l-1.0008,0l-0.3096,0c-0.3816,0,-0.6984,0.29376,-0.6984,0.64512l0,0.24696L6.7464,5.8392l0,0.1728c0,0.36,0.3168,0.64512,0.6984,0.64512l1.62,0c0.3816,0,0.9792,-0.1224,1.332,-0.26712l0.072,-0.02808c0.3456,-0.14112,0.9504,-0.26496,1.332,-0.26496l6.94656,0c0.37944,0,0.97704,0.12384,1.33416,0.26568l0.07416,0.02808c0.34488,0.14472,0.94464,0.26712,1.33344,0.26712l2.2248,0c0.38088,0,0.69912,-0.2952,0.69912,-0.64512L24.413,5.472L24.413,4.49928L24.413,2.65536C24.1358,2.76336,23.711,3.06576,23.711,4.0896z"/>
 <rect xmlns="http://www.w3.org/2000/svg" id="ShadowExtra" height="3.15288" opacity="0.4" x="22.019" y="3.48336" width="0.70272"/>
 <path xmlns="http://www.w3.org/2000/svg" id="ReflexRight" opacity="0.25" d="M19.751,1.08576c0.22968,0,0.49104,-0.1008,0.6624,-0.1728c0.2016,-0.0792,0.57672,-0.144,0.96624,-0.144l1.46088,0c0.22464,0,0.22464,0.2448,0.22464,0.3744c0,0.1296,-0.01512,0.3816,-0.22464,0.3816l-3.06,0c-0.10728,0,-0.2304,-0.1152,-0.2304,-0.22392C19.5566,1.21536,19.6286,1.08576,19.751,1.08576z" fill="#FFFFFF"/>
 <circle xmlns="http://www.w3.org/2000/svg" id="ReflexLeft" opacity="0.35" cx="6.99984" cy="1.13616" r="0.432" fill="#FFFFFF"/>
 <rect xmlns="http://www.w3.org/2000/svg" id="Reflex_gold" height="1.62" opacity="0.5" fill="#FFFF33" x="22.019" y="0.42336" width="0.70272"/>
 <rect xmlns="http://www.w3.org/2000/svg" id="Reflex_extra" height="0.7488" opacity="0.5" fill="#FFFFFF" x="22.019" y="0.78336" width="0.70272"/>
</g>
</g></g></g><path stroke='#8c8c8c' stroke-width='2.16' stroke-linecap='round' stroke-linejoin='round' fill='none' d='M344.469,135.876L323.469,135.876' />
<path stroke='#8c8c8c' stroke-width='2.16' stroke-linecap='round' stroke-linejoin='round' fill='none' d='M344.469,143.076L323.469,143.076' />
<path stroke='#8c8c8c' stroke-width='2.16' stroke-linecap='round' stroke-linejoin='round' fill='none' d='M344.469,150.276L323.469,150.276' />
<path stroke='#8c8c8c' stroke-width='2.16' stroke-linecap='round' stroke-linejoin='round' fill='none' d='M344.469,157.476L323.469,157.476' />
<g partID='58210'><g transform='translate(377.021,134.796)' ><g transform='matrix(0,1,-1,0,0,0)'  ><g xmlns="http://www.w3.org/2000/svg" id="breadboard">
 <rect xmlns="http://www.w3.org/2000/svg" id="connector0pin" height="1.00004" fill="none" y="22.0008" width="1"/>
 <rect xmlns="http://www.w3.org/2000/svg" id="connector1pin" height="1.00004" fill="none" x="7.199" y="22.0008" width="1"/>
 <rect xmlns="http://www.w3.org/2000/svg" id="connector2pin" height="1.00004" fill="none" x="14.399" y="22.0008" width="1"/>
 <rect xmlns="http://www.w3.org/2000/svg" id="connector3pin" height="1.00004" fill="none" x="21.598" y="22.0008" width="1"/>
 <g xmlns="http://www.w3.org/2000/svg" id="connector0leg" stroke-width="2.16" y1="32.55" y2="53.55" stroke-linecap="round" x1="1.08" x2="1.08" fill="none" stroke="#8C8C8C"/>
 <g xmlns="http://www.w3.org/2000/svg" id="connector1leg" stroke-width="2.16" y1="32.55" y2="53.55" stroke-linecap="round" x1="8.28" x2="8.28" fill="none" stroke="#8C8C8C"/>
 <g xmlns="http://www.w3.org/2000/svg" id="connector2leg" stroke-width="2.16" y1="32.55" y2="53.55" stroke-linecap="round" x1="15.48" x2="15.48" fill="none" stroke="#8C8C8C"/>
 <g xmlns="http://www.w3.org/2000/svg" id="connector3leg" stroke-width="2.16" y1="32.55" y2="53.55" stroke-linecap="round" x1="22.68" x2="22.68" fill="none" stroke="#8C8C8C"/>
 <g xmlns="http://www.w3.org/2000/svg" id="rgbled">
  <path xmlns="http://www.w3.org/2000/svg" d="M8.993,18.0127l0,5.00618c0,1.17404,-0.417,2.49409,-0.857,3.89214c-0.464,1.46905,-0.942,2.98611,-0.942,4.44916l0,1.18804l0.008,0l0,0L9.36,32.5482l0,0L9.354,32.5482l0,-1.18804c0,-1.12904,0.409,-2.42609,0.842,-3.79914c0.473,-1.49306,0.959,-3.03611,0.959,-4.54217l0,-5.00618L8.993,18.0127L8.993,18.0127z" fill="#8C8C8C"/>
  <path xmlns="http://www.w3.org/2000/svg" d="M5.363,18.0127c0,0,0,3.99415,0,5.18619S4.092,25.5009,2.973,26.627C1.511,28.098,0,29.6191,0,31.3602l0,1.18804l0,0l2.16,0l0,0l0,-1.02304c0,-1.09604,1.246,-2.27008,2.345,-3.37312c1.483,-1.49306,3.019,-3.03811,3.019,-4.82118l0,-5.3142L5.363,18.0127L5.363,18.0127z" fill="#8C8C8C"/>
  <path xmlns="http://www.w3.org/2000/svg" d="M15.623,26.911c-0.441,-1.39605,-0.857,-2.7181,-0.857,-3.89214l0,-5.00618l-2.159,0l0,5.00618c0,1.50606,0.485,3.04911,0.957,4.54217c0.436,1.37305,0.844,2.6701,0.844,3.79914l0,1.18804l-0.008,0l0,0l2.159,0l0,0l0.009,0l0,-1.18804C16.567,29.8971,16.086,28.377,15.623,26.911z" fill="#8C8C8C"/>
  <path xmlns="http://www.w3.org/2000/svg" d="M20.786,26.626c-1.12,-1.12704,-2.391,-2.23608,-2.391,-3.42813s0,-5.18619,0,-5.18619l-2.16,0l0,5.3132c0,1.78407,1.535,3.32912,3.019,4.82218c1.101,1.10404,2.346,2.27408,2.346,3.37312l0,1.02204l0,0l2.16,0l0,0l0,-1.18504C23.76,29.6191,22.248,28.098,20.786,26.626z" fill="#8C8C8C"/>
  <path xmlns="http://www.w3.org/2000/svg" opacity="0.5" d="M19.133,13.1765L19.133,7.18426C19.133,3.21612,15.916,0,11.948,0C7.982,0,4.765,3.21612,4.765,7.18426l0,13.8345c1.5,1.67406,4.153,2.7891,7.184,2.7891c4.687,0,8.48,-2.6581,8.48,-5.93822l0,-1.54706C20.432,15.1676,19.95,14.0895,19.133,13.1765z" fill="#E6E6E6"/>
  <path xmlns="http://www.w3.org/2000/svg" opacity="0.9" d="M19.133,13.1765l0,3.14612c0,2.7771,-3.217,5.02919,-7.185,5.02919c-3.966,0,-7.184,-2.25208,-7.184,-5.02919l0,3.14812l0,1.54706c1.5,1.67206,4.153,2.7891,7.184,2.7891c4.687,0,8.48,-2.6581,8.48,-5.93822l0,-1.54606C20.432,15.1676,19.95,14.0895,19.133,13.1765z" fill="#D1D1D1"/>
  <path xmlns="http://www.w3.org/2000/svg" opacity="0.24" d="M19.133,13.1765l0,3.14612c0,2.7771,-3.217,5.02919,-7.185,5.02919c-3.966,0,-7.184,-2.25208,-7.184,-5.02919l0,3.14812c1.5,1.67406,4.153,2.7891,7.184,2.7891c4.687,0,8.48,-2.6581,8.48,-5.93822C20.432,15.1676,19.95,14.0895,19.133,13.1765z"/>
  <ellipse xmlns="http://www.w3.org/2000/svg" opacity="0.5" cx="11.95" cy="16.3236" rx="7.183" fill="#CCCCCC" ry="5.02919"/>
  <polygon xmlns="http://www.w3.org/2000/svg" fill="#999999" points="15.692,8.63732,16.133,9.15334,12.981,12.5185,15.978,12.5185,15.978,13.2685,15.978,16.3256,16.903,16.3256,16.903,8.63732"/>
  <polygon xmlns="http://www.w3.org/2000/svg" fill="#999999" points="12.729,8.92133,12.223,9.79636,10.278,9.79636,9.772,8.92133,8.22,8.92133,6.999,9.77636,6.999,16.3256,8.865,16.3236,8.865,12.5185,11.563,12.5185,14.916,8.92133"/>
  <path xmlns="http://www.w3.org/2000/svg" opacity="0.6" d="M15.295,3.80114l1.459,-0.27701c-0.849,-1.14904,-2.108,-1.98607,-3.588,-2.27108l0.252,1.09704C14.194,2.6251,14.846,3.14112,15.295,3.80114z" fill="#FFFFFF"/>
  <path xmlns="http://www.w3.org/2000/svg" opacity="0.6" d="M5.545,20.1967l0,1.54606c0.66,0.53602,1.447,0.989036,2.34,1.33405l0,-1.54806C6.992,21.1868,6.205,20.7318,5.545,20.1967z" fill="#FFFFFF"/>
  <path xmlns="http://www.w3.org/2000/svg" opacity="0.6" d="M15.987,20.4818c-0.264,0.125005,-0.537,0.233009,-0.821,0.334012c-0.06,0.0210008,-0.119,0.0410015,-0.181,0.0620023c-0.569,0.188007,-1.184,0.321012,-1.821,0.397015c-0.076,0.0110004,-0.154,0.0190007,-0.23,0.0250009c-0.321,0.0300011,-0.647,0.053002,-0.983,0.053002c-0.148,0,-0.312,-0.0100004,-0.478,-0.0240009c-1.223,-0.0580021,-2.362,-0.317012,-3.344,-0.750028l0,-8.50731L8.129,7.18426c0,-1.49005,0.86,-2.7661,2.104,-3.39613l-0.021,-0.0510019L8.946,2.20308C7.257,3.22312,6.115,5.06519,6.115,7.18226L6.115,19.2507c-0.049,-0.0490018,-0.313,-0.312012,-0.485,-0.53402l-0.312,0.699026c1.426,1.50306,3.861,2.49709,6.632,2.49709c1.703,0,3.277,-0.379014,4.572,-1.01904l-0.531,-0.412015C15.987,20.4818,15.987,20.4818,15.987,20.4818z" fill="#FFFFFF"/>
 </g>
</g>
</g></g></g><g partID='89750'><g transform='translate(370.975,167.021)' ><g transform='matrix(4.44089e-16,1,-1,4.44089e-16,0,0)'  ><g xmlns="http://www.w3.org/2000/svg" id="breadboard">
 <circle xmlns="http://www.w3.org/2000/svg" id="connector2pin" cx="12.053" cy="61.905" r="2.053" fill="none"/>
 <circle xmlns="http://www.w3.org/2000/svg" id="connector1pin" cx="19.254" cy="61.906" r="2.052" fill="none"/>
 <circle xmlns="http://www.w3.org/2000/svg" id="connector3pin" cx="26.454" cy="61.905" r="2.053" fill="none"/>
 <circle xmlns="http://www.w3.org/2000/svg" id="connector0pin" cx="33.654" cy="61.906" r="2.052" fill="none"/>
 <path xmlns="http://www.w3.org/2000/svg" d="M0,0l0,54.75l37.152,0L37.152,0L0,0zM2.628,52.914c-0.712,0,-1.289,-0.577,-1.289,-1.289c0,-0.711,0.577,-1.288,1.289,-1.288c0.711,0,1.288,0.577,1.288,1.288C3.916,52.336,3.339,52.914,2.628,52.914zM2.628,12.952c-0.712,0,-1.289,-0.577,-1.289,-1.289c0,-0.711,0.577,-1.288,1.289,-1.288c0.711,0,1.288,0.577,1.288,1.288C3.916,12.375,3.339,12.952,2.628,12.952zM2.628,8.476c-0.712,0,-1.289,-0.577,-1.289,-1.289c0,-0.711,0.577,-1.288,1.289,-1.288c0.711,0,1.288,0.577,1.288,1.288C3.916,7.899,3.339,8.476,2.628,8.476zM2.628,4.101c-0.712,0,-1.289,-0.577,-1.289,-1.289c0,-0.711,0.577,-1.288,1.289,-1.288c0.711,0,1.288,0.577,1.288,1.288C3.916,3.524,3.339,4.101,2.628,4.101zM7.894,4.101c-0.712,0,-1.289,-0.577,-1.289,-1.289c0,-0.711,0.577,-1.288,1.289,-1.288c0.711,0,1.288,0.577,1.288,1.288C9.182,3.524,8.605,4.101,7.894,4.101zM13.225,4.101c-0.712,0,-1.289,-0.577,-1.289,-1.289c0,-0.711,0.577,-1.288,1.289,-1.288c0.711,0,1.288,0.577,1.288,1.288C14.513,3.524,13.937,4.101,13.225,4.101zM18.18,4.101c-0.713,0,-1.289,-0.577,-1.289,-1.289c0,-0.711,0.576,-1.288,1.289,-1.288c0.711,0,1.287,0.577,1.287,1.288C19.469,3.524,18.891,4.101,18.18,4.101zM23.581,4.101c-0.712,0,-1.289,-0.577,-1.289,-1.289c0,-0.711,0.577,-1.288,1.289,-1.288c0.711,0,1.288,0.577,1.288,1.288C24.869,3.524,24.292,4.101,23.581,4.101zM29.248,4.101c-0.712,0,-1.289,-0.577,-1.289,-1.289c0,-0.711,0.577,-1.288,1.289,-1.288c0.711,0,1.288,0.577,1.288,1.288C30.536,3.524,29.959,4.101,29.248,4.101zM34.524,8.476c-0.712,0,-1.289,-0.577,-1.289,-1.289c0,-0.711,0.577,-1.288,1.289,-1.288c0.711,0,1.288,0.577,1.288,1.288C35.812,7.899,35.235,8.476,34.524,8.476zM34.524,4.101c-0.712,0,-1.289,-0.577,-1.289,-1.289c0,-0.711,0.577,-1.288,1.289,-1.288c0.711,0,1.288,0.577,1.288,1.288C35.812,3.524,35.235,4.101,34.524,4.101z" fill="#1F7A34"/>
 <rect xmlns="http://www.w3.org/2000/svg" height="3.625" fill="#00558D" x="10.98" y="13.5" width="9.251"/>
 <rect xmlns="http://www.w3.org/2000/svg" height="9.251" fill="#00558D" x="10.983" y="33.918" width="3.499"/>
 <rect xmlns="http://www.w3.org/2000/svg" height="9.251" fill="#00558D" x="4.082" y="33.918" width="3.499"/>
 <rect xmlns="http://www.w3.org/2000/svg" height="3.5" fill="#1A1A1A" x="19.329" y="20.875" width="8.104"/>
 <rect xmlns="http://www.w3.org/2000/svg" height="8.103" fill="#1A1A1A" x="17.358" y="31.791" width="3.5"/>
 <rect xmlns="http://www.w3.org/2000/svg" height="3.5" fill="#1A1A1A" x="26.306" y="34.092" width="8.103"/>
 <rect xmlns="http://www.w3.org/2000/svg" height="2" fill="#4D4D4D" x="28.469" y="24.375" width="5.055"/>
 <rect xmlns="http://www.w3.org/2000/svg" height="2" fill="#C7B299" x="3.351" y="14.938" width="5.055"/>
 <rect xmlns="http://www.w3.org/2000/svg" height="2" fill="#C7B299" x="22.854" y="14.313" width="5.055"/>
 <rect xmlns="http://www.w3.org/2000/svg" height="1.875" fill="#C7B299" x="28.469" y="28.625" width="5.055"/>
 <rect xmlns="http://www.w3.org/2000/svg" height="1.875" fill="#C7B299" x="20.277" y="28.625" width="5.055"/>
 <rect xmlns="http://www.w3.org/2000/svg" height="1.875" fill="#C7B299" x="16.329" y="41.688" width="5.055"/>
 <rect xmlns="http://www.w3.org/2000/svg" height="1.875" fill="#C7B299" x="29.122" y="44.36" width="5.055"/>
 <rect xmlns="http://www.w3.org/2000/svg" height="1.875" fill="#C7B299" x="16.329" y="45.298" width="5.055"/>
 <rect xmlns="http://www.w3.org/2000/svg" height="1.875" fill="#4D4D4D" x="11.993" y="28.625" width="5.055"/>
 <rect xmlns="http://www.w3.org/2000/svg" height="1.875" fill="#4D4D4D" x="11.993" y="24.438" width="5.055"/>
 <rect xmlns="http://www.w3.org/2000/svg" height="5.055" fill="#C7B299" x="6.444" y="23.57" width="1.875"/>
 <rect xmlns="http://www.w3.org/2000/svg" height="5.055" fill="#C7B299" x="31.649" y="17.125" width="1.875"/>
 <rect xmlns="http://www.w3.org/2000/svg" height="5.055" fill="#C7B299" x="24.444" y="42.348" width="1.875"/>
 <rect xmlns="http://www.w3.org/2000/svg" height="1.875" fill="#4D4D4D" x="7.306" y="19" width="5.055"/>
 <rect xmlns="http://www.w3.org/2000/svg" height="1.875" fill="#C7B299" x="3.351" y="30.853" width="5.055"/>
 <circle xmlns="http://www.w3.org/2000/svg" cx="7.68" cy="9.344" r="3.156" fill="#006837"/>
 <circle xmlns="http://www.w3.org/2000/svg" cx="7.68" cy="9.343" r="2.457" fill="#CCCCCC"/>
 <circle xmlns="http://www.w3.org/2000/svg" cx="15.015" cy="9.344" r="3.156" fill="#006837"/>
 <circle xmlns="http://www.w3.org/2000/svg" cx="15.015" cy="9.343" r="2.457" fill="#CCCCCC"/>
 <circle xmlns="http://www.w3.org/2000/svg" cx="15.015" cy="9.343" r="2.457" fill="#CCCCCC"/>
 <circle xmlns="http://www.w3.org/2000/svg" cx="22.351" cy="9.344" r="3.156" fill="#006837"/>
 <circle xmlns="http://www.w3.org/2000/svg" cx="22.351" cy="9.343" r="2.457" fill="#CCCCCC"/>
 <circle xmlns="http://www.w3.org/2000/svg" cx="29.686" cy="9.344" r="3.156" fill="#006837"/>
 <circle xmlns="http://www.w3.org/2000/svg" cx="29.686" cy="9.343" r="2.457" fill="#CCCCCC"/>
 <g xmlns="http://www.w3.org/2000/svg">
  <polygon xmlns="http://www.w3.org/2000/svg" fill="#B8AF82" points="34.804,61.61,34.246,63.957,33.064,63.957,32.508,61.61,32.508,50.188,34.804,50.188"/>
  <polygon xmlns="http://www.w3.org/2000/svg" fill="#E2D6A1" points="34.246,63.957,34.402,63.3,32.908,63.3,33.064,63.957"/>
 </g>
 <g xmlns="http://www.w3.org/2000/svg">
  <polygon xmlns="http://www.w3.org/2000/svg" fill="#B8AF82" points="27.603,61.61,27.047,63.957,25.865,63.957,25.306,61.61,25.306,50.188,27.603,50.188"/>
  <polygon xmlns="http://www.w3.org/2000/svg" fill="#E2D6A1" points="27.047,63.957,27.203,63.3,25.709,63.3,25.865,63.957"/>
 </g>
 <g xmlns="http://www.w3.org/2000/svg">
  <polygon xmlns="http://www.w3.org/2000/svg" fill="#B8AF82" points="20.406,61.61,19.845,63.957,18.666,63.957,18.108,61.61,18.108,50.188,20.406,50.188"/>
  <polygon xmlns="http://www.w3.org/2000/svg" fill="#E2D6A1" points="19.845,63.957,20.004,63.3,18.51,63.3,18.666,63.957"/>
 </g>
 <g xmlns="http://www.w3.org/2000/svg">
  <polygon xmlns="http://www.w3.org/2000/svg" fill="#B8AF82" points="13.201,61.61,12.64,63.957,11.461,63.957,10.902,61.61,10.902,50.188,13.201,50.188"/>
  <polygon xmlns="http://www.w3.org/2000/svg" fill="#E2D6A1" points="12.64,63.957,12.799,63.3,11.304,63.3,11.461,63.957"/>
 </g>
 <circle xmlns="http://www.w3.org/2000/svg" cx="12.054" cy="50.187" r="2.052" fill="#CCCCCC"/>
 <circle xmlns="http://www.w3.org/2000/svg" cx="19.256" cy="50.187" r="2.052" fill="#CCCCCC"/>
 <circle xmlns="http://www.w3.org/2000/svg" cx="26.456" cy="50.187" r="2.052" fill="#CCCCCC"/>
 <circle xmlns="http://www.w3.org/2000/svg" cx="33.656" cy="50.187" r="2.052" fill="#CCCCCC"/>
</g>
</g></g></g><g partID='90430'><g transform='translate(254.984,0)' ><g xmlns="http://www.w3.org/2000/svg" id="breadboard">
 <rect xmlns="http://www.w3.org/2000/svg" height="2.04098" fill="#FFD500" x="27.119" y="120.672" width="7.283"/>
 <path xmlns="http://www.w3.org/2000/svg" d="M16.298,91.8563L16.298,81.1983L12.23,81.1983l0,10.6079c0,3.10997,-1.305,3.31297,-1.305,6.16795c0,2.85298,1.305,3.49597,1.305,6.60395l0,8.28893l4.066,0l0,-8.33793c0.021,-3.08797,1.305,-3.67597,1.305,-6.55695S16.319,94.9422,16.298,91.8563z"/>
 <polygon xmlns="http://www.w3.org/2000/svg" fill="#1E1E1E" points="15.597,77.0094,12.929,77.0094,12.929,9.82892,15.597,9.82892"/>
 <g xmlns="http://www.w3.org/2000/svg">
  <line xmlns="http://www.w3.org/2000/svg" stroke-width="0.8908" y1="82.5053" y2="82.5053" stroke-linecap="round" x1="16.297" x2="12.229" fill="none" stroke="#1E1E1E"/>
  <line xmlns="http://www.w3.org/2000/svg" stroke-width="0.8908" y1="84.2413" y2="84.2413" stroke-linecap="round" x1="16.297" x2="12.229" fill="none" stroke="#1E1E1E"/>
  <line xmlns="http://www.w3.org/2000/svg" stroke-width="0.8908" y1="85.9753" y2="85.9753" stroke-linecap="round" x1="16.297" x2="12.229" fill="none" stroke="#1E1E1E"/>
  <line xmlns="http://www.w3.org/2000/svg" stroke-width="0.8908" y1="87.7093" y2="87.7093" stroke-linecap="round" x1="16.297" x2="12.228" fill="none" stroke="#1E1E1E"/>
  <line xmlns="http://www.w3.org/2000/svg" stroke-width="0.8908" y1="89.4463" y2="89.4463" stroke-linecap="round" x1="16.391" x2="12.136" fill="none" stroke="#1E1E1E"/>
  <line xmlns="http://www.w3.org/2000/svg" stroke-width="0.8908" y1="91.1793" y2="91.1793" stroke-linecap="round" x1="16.624" x2="11.904" fill="none" stroke="#1E1E1E"/>
  <line xmlns="http://www.w3.org/2000/svg" stroke-width="0.8908" y1="92.9152" y2="92.9152" stroke-linecap="round" x1="16.946" x2="11.581" fill="none" stroke="#1E1E1E"/>
  <line xmlns="http://www.w3.org/2000/svg" stroke-width="0.8908" y1="94.6492" y2="94.6492" stroke-linecap="round" x1="17.281" x2="11.245" fill="none" stroke="#1E1E1E"/>
  <line xmlns="http://www.w3.org/2000/svg" stroke-width="0.8908" y1="96.3822" y2="96.3822" stroke-linecap="round" x1="17.528" x2="10.997" fill="none" stroke="#1E1E1E"/>
  <line xmlns="http://www.w3.org/2000/svg" stroke-width="0.8908" y1="98.1182" y2="98.1182" stroke-linecap="round" x1="10.725" x2="17.885" fill="none" stroke="#1E1E1E"/>
  <line xmlns="http://www.w3.org/2000/svg" stroke-width="0.8908" y1="99.8522" y2="99.8522" stroke-linecap="round" x1="17.585" x2="10.941" fill="none" stroke="#1E1E1E"/>
  <line xmlns="http://www.w3.org/2000/svg" stroke-width="0.8908" y1="101.586" y2="101.586" stroke-linecap="round" x1="11.125" x2="17.401" fill="none" stroke="#1E1E1E"/>
  <line xmlns="http://www.w3.org/2000/svg" stroke-width="0.8908" y1="103.323" y2="103.323" stroke-linecap="round" x1="11.437" x2="17.089" fill="none" stroke="#1E1E1E"/>
  <line xmlns="http://www.w3.org/2000/svg" stroke-width="0.8908" y1="105.056" y2="105.056" stroke-linecap="round" x1="11.777" x2="16.751" fill="none" stroke="#1E1E1E"/>
  <line xmlns="http://www.w3.org/2000/svg" stroke-width="0.8908" y1="106.79" y2="106.79" stroke-linecap="round" x1="12.055" x2="16.473" fill="none" stroke="#1E1E1E"/>
  <line xmlns="http://www.w3.org/2000/svg" stroke-width="0.8908" y1="108.526" y2="108.526" stroke-linecap="round" x1="12.21" x2="16.316" fill="none" stroke="#1E1E1E"/>
  <line xmlns="http://www.w3.org/2000/svg" stroke-width="0.8908" y1="110.259" y2="110.259" stroke-linecap="round" x1="12.229" x2="16.297" fill="none" stroke="#1E1E1E"/>
  <line xmlns="http://www.w3.org/2000/svg" stroke-width="0.8908" y1="111.995" y2="111.995" stroke-linecap="round" x1="12.229" x2="16.297" fill="none" stroke="#1E1E1E"/>
 </g>
 <path xmlns="http://www.w3.org/2000/svg" d="M15.862,75.4704c0.459,0,0.831,0.471996,0.831,1.05399l0,4.77096c0,0.275998,-0.178,0.501996,-0.396,0.501996l0,0L12.23,81.7973c-0.22,0,-0.396,-0.225998,-0.396,-0.501996l0,-4.77096c0,-0.579995,0.372,-1.05399,0.831,-1.05399L15.862,75.4704z" fill="#1E1E1E"/>
 <path xmlns="http://www.w3.org/2000/svg" d="M13.386,75.8864c-0.113,0,-0.098,0.437996,-0.098,1.02099l0.028,4.19697c0,0.278998,-0.206,0.503996,-0.425,0.503996l-0.142,0c-0.22,0,-0.396,-0.224998,-0.396,-0.503996l-0.001,-4.19697c0,-0.581995,0.175,-1.02099,0.634,-1.02099L13.386,75.8864z" fill="#808080"/>
 <path xmlns="http://www.w3.org/2000/svg" d="M28.523,120.131c0,0,-0.207,-0.0979992,-0.455,-0.216998l-7.049,-3.40997c-0.248,-0.117999,-0.59,-0.395997,-0.761,-0.609995l-2.408,-3.09897c-0.17,-0.216998,-0.533,-0.395997,-0.81,-0.395997l-5.558,0c-0.275,0,-0.64,0.180999,-0.809,0.395997l-2.412,3.09897c-0.169,0.217998,-0.512,0.491996,-0.76,0.609995l-7.051,3.40997C0.204,120.034,0,120.131,0,120.131s0,0,0,0.00199998l0,0l0,0c0,0,0,0.227998,0,0.502996l0,1.97898c0,0.274998,0.227,0.501996,0.5,0.501996l27.523,0c0.274,0,0.502,-0.226998,0.502,-0.501996l0,-1.98198C28.527,120.359,28.525,120.131,28.523,120.131z" fill="#1E1E1E"/>
 <path xmlns="http://www.w3.org/2000/svg" d="M28.523,120.131c0,0,-0.207,-0.0979992,-0.455,-0.216998l-7.049,-3.40997c-0.248,-0.117999,-0.59,-0.395997,-0.761,-0.609995l-2.408,-3.09897c-0.17,-0.216998,-0.533,-0.395997,-0.81,-0.395997l-5.558,0c-0.275,0,-0.64,0.180999,-0.809,0.395997l-2.412,3.09897c-0.169,0.217998,-0.512,0.491996,-0.76,0.609995l-7.051,3.40997C0.204,120.034,0,120.131,0,120.131s0,0,0,0.00199998l0,0l0,0c0,0,0,0.227998,0,0.502996l0,1.97898c0,0.274998,0.227,0.501996,0.5,0.501996l27.523,0c0.274,0,0.502,-0.226998,0.502,-0.501996l0,-1.98198C28.527,120.359,28.525,120.131,28.523,120.131z" fill="#1E1E1E"/>
 <polygon xmlns="http://www.w3.org/2000/svg" fill="#757575" points="9.142,116.29,11.385,113.04,12.932,113.04,12.125,116.29"/>
 <polygon xmlns="http://www.w3.org/2000/svg" fill="#4D4D4D" points="8.871,116.836,1.506,120.136,8.759,120.133,11.788,116.836"/>
 <rect xmlns="http://www.w3.org/2000/svg" height="2.13298" fill="#2B2B2B" x="1.068" y="120.575" width="7.253"/>
 <line xmlns="http://www.w3.org/2000/svg" stroke-width="0.1916" y1="116.599" y2="116.599" stroke-linecap="round" x1="12.159" x2="20.049" fill="none" stroke="#4D4D4D"/>
 <line xmlns="http://www.w3.org/2000/svg" stroke-width="0.1916" y1="120.37" y2="120.37" stroke-linecap="round" x1="8.852" x2="27.385" fill="none" stroke="#4D4D4D"/>
 <line xmlns="http://www.w3.org/2000/svg" stroke-width="0.6345" y1="11.8639" y2="74.8644" stroke-linecap="round" x1="13.765" x2="13.765" fill="none" stroke="#808080"/>
 <path xmlns="http://www.w3.org/2000/svg" d="M12.188,9.80792c0,0.581995,0.475,1.05699,1.056,1.05699l2.04,0c0.581,0,1.056,-0.475996,1.056,-1.05699L16.34,1.06499c0,-0.581995,-0.475,-1.05699,-1.056,-1.05699l-2.04,0c-0.581,0,-1.056,0.475996,-1.056,1.05699L12.188,9.80792z" fill="#1E1E1E"/>
 <path xmlns="http://www.w3.org/2000/svg" d="M13.894,10.2169c-0.248,0,-0.453,-0.00899993,-0.453,-0.558995L13.441,1.57199c0,-0.551996,0.205,-1.00199,0.453,-1.00199l-0.453,0c-0.396,0,-0.72,0.449996,-0.72,1.00199l0,8.08593c0,0.550996,0.322,0.558995,0.72,0.558995L13.894,10.2169z" fill="#808080"/>
 <rect xmlns="http://www.w3.org/2000/svg" height="2.04098" fill="#8C8C8C" x="34.402" y="120.672" width="5.612"/>
 <line xmlns="http://www.w3.org/2000/svg" stroke-width="0.5247" y1="82.5053" y2="82.5053" stroke-linecap="round" x1="13.01" x2="12.543" stroke-linejoin="round" fill="none" stroke="#808080"/>
 <line xmlns="http://www.w3.org/2000/svg" stroke-width="0.5247" y1="84.2413" y2="84.2413" stroke-linecap="round" x1="13.01" x2="12.543" stroke-linejoin="round" fill="none" stroke="#808080"/>
 <line xmlns="http://www.w3.org/2000/svg" stroke-width="0.5247" y1="85.9753" y2="85.9753" stroke-linecap="round" x1="13.01" x2="12.543" stroke-linejoin="round" fill="none" stroke="#808080"/>
 <line xmlns="http://www.w3.org/2000/svg" stroke-width="0.5247" y1="87.7093" y2="87.7093" stroke-linecap="round" x1="13.01" x2="12.542" stroke-linejoin="round" fill="none" stroke="#808080"/>
 <line xmlns="http://www.w3.org/2000/svg" stroke-width="0.5247" y1="89.4463" y2="89.4463" stroke-linecap="round" x1="12.992" x2="12.494" stroke-linejoin="round" fill="none" stroke="#808080"/>
 <line xmlns="http://www.w3.org/2000/svg" stroke-width="0.5247" y1="91.1793" y2="91.1793" stroke-linecap="round" x1="12.95" x2="12.372" stroke-linejoin="round" fill="none" stroke="#808080"/>
 <line xmlns="http://www.w3.org/2000/svg" stroke-width="0.5247" y1="92.9152" y2="92.9152" stroke-linecap="round" x1="12.892" x2="12.203" stroke-linejoin="round" fill="none" stroke="#808080"/>
 <line xmlns="http://www.w3.org/2000/svg" stroke-width="0.5247" y1="94.6492" y2="94.6492" stroke-linecap="round" x1="12.833" x2="12.027" stroke-linejoin="round" fill="none" stroke="#808080"/>
 <line xmlns="http://www.w3.org/2000/svg" stroke-width="0.5247" y1="96.3822" y2="96.3822" stroke-linecap="round" x1="12.505" x2="11.457" stroke-linejoin="round" fill="none" stroke="#808080"/>
 <line xmlns="http://www.w3.org/2000/svg" stroke-width="0.5247" y1="98.1182" y2="98.1182" stroke-linecap="round" x1="11.199" x2="12.441" stroke-linejoin="round" fill="none" stroke="#808080"/>
 <line xmlns="http://www.w3.org/2000/svg" stroke-width="0.5247" y1="99.8522" y2="99.8522" stroke-linecap="round" x1="12.495" x2="11.427" stroke-linejoin="round" fill="none" stroke="#808080"/>
 <line xmlns="http://www.w3.org/2000/svg" stroke-width="0.5247" y1="101.586" y2="101.586" stroke-linecap="round" x1="11.965" x2="12.811" stroke-linejoin="round" fill="none" stroke="#808080"/>
 <line xmlns="http://www.w3.org/2000/svg" stroke-width="0.5247" y1="103.323" y2="103.323" stroke-linecap="round" x1="12.128" x2="12.867" stroke-linejoin="round" fill="none" stroke="#808080"/>
 <line xmlns="http://www.w3.org/2000/svg" stroke-width="0.5247" y1="105.056" y2="105.056" stroke-linecap="round" x1="12.305" x2="12.927" stroke-linejoin="round" fill="none" stroke="#808080"/>
 <line xmlns="http://www.w3.org/2000/svg" stroke-width="0.5247" y1="106.79" y2="106.79" stroke-linecap="round" x1="12.451" x2="12.977" stroke-linejoin="round" fill="none" stroke="#808080"/>
 <line xmlns="http://www.w3.org/2000/svg" stroke-width="0.5247" y1="108.526" y2="108.526" stroke-linecap="round" x1="12.532" x2="13.006" stroke-linejoin="round" fill="none" stroke="#808080"/>
 <line xmlns="http://www.w3.org/2000/svg" stroke-width="0.5247" y1="110.259" y2="110.259" stroke-linecap="round" x1="12.543" x2="13.01" stroke-linejoin="round" fill="none" stroke="#808080"/>
 <line xmlns="http://www.w3.org/2000/svg" stroke-width="0.5247" y1="111.995" y2="111.995" stroke-linecap="round" x1="12.543" x2="13.01" stroke-linejoin="round" fill="none" stroke="#808080"/>
</g>
</g></g><g partID='110350'><line stroke-linecap='round' stroke='#000000' x1='100.255' y1='214.945' x2='172.269' y2='215.075' stroke-width='3.2' /><line stroke-linecap='round' stroke='#404040' x1='100.255' y1='214.945' x2='172.269' y2='215.075' stroke-width='1.6' /></g><g partID='110280'><line stroke-linecap='round' stroke='#000000' x1='100.269' y1='114.276' x2='100.255' y2='214.945' stroke-width='3.2' /><line stroke-linecap='round' stroke='#404040' x1='100.269' y1='114.276' x2='100.255' y2='214.945' stroke-width='1.6' /></g><g partID='110580'><line stroke-linecap='round' stroke='#8c0000' x1='107.248' y1='222.261' x2='172.269' y2='222.275' stroke-width='3.2' /><line stroke-linecap='round' stroke='#cc1414' x1='107.248' y1='222.261' x2='172.269' y2='222.275' stroke-width='1.6' /></g><g partID='110490'><line stroke-linecap='round' stroke='#8c0000' x1='107.595' y1='107.102' x2='107.248' y2='222.261' stroke-width='3.2' /><line stroke-linecap='round' stroke='#cc1414' x1='107.595' y1='107.102' x2='107.248' y2='222.261' stroke-width='1.6' /></g><g partID='110420'><line stroke-linecap='round' stroke='#8c0000' x1='100.269' y1='107.096' x2='107.595' y2='107.102' stroke-width='3.2' /><line stroke-linecap='round' stroke='#cc1414' x1='100.269' y1='107.096' x2='107.595' y2='107.102' stroke-width='1.6' /></g><g partID='95310'><line stroke-linecap='round' stroke='#00a527' x1='222.772' y1='157.39' x2='215.469' y2='157.476' stroke-width='3.2' /><line stroke-linecap='round' stroke='#25cc35' x1='222.772' y1='157.39' x2='215.469' y2='157.476' stroke-width='1.6' /></g><g partID='96330'><line stroke-linecap='round' stroke='#00a527' x1='272.999' y1='135.873' x2='222.772' y2='157.39' stroke-width='3.2' /><line stroke-linecap='round' stroke='#25cc35' x1='272.999' y1='135.873' x2='222.772' y2='157.39' stroke-width='1.6' /></g><g partID='95320'><line stroke-linecap='round' stroke='#00a527' x1='323.469' y1='135.876' x2='272.999' y2='135.873' stroke-width='3.2' /><line stroke-linecap='round' stroke='#25cc35' x1='323.469' y1='135.876' x2='272.999' y2='135.873' stroke-width='1.6' /></g><g partID='96050'><line stroke-linecap='round' stroke='#000000' x1='309.198' y1='142.949' x2='323.469' y2='143.076' stroke-width='3.2' /><line stroke-linecap='round' stroke='#404040' x1='309.198' y1='142.949' x2='323.469' y2='143.076' stroke-width='1.6' /></g><g partID='95930'><line stroke-linecap='round' stroke='#000000' x1='309.175' y1='179.201' x2='309.198' y2='142.949' stroke-width='3.2' /><line stroke-linecap='round' stroke='#404040' x1='309.175' y1='179.201' x2='309.198' y2='142.949' stroke-width='1.6' /></g><g partID='95940'><line stroke-linecap='round' stroke='#000000' x1='309.07' y1='179.074' x2='309.174' y2='179.201' stroke-width='3.2' /><line stroke-linecap='round' stroke='#404040' x1='309.07' y1='179.074' x2='309.174' y2='179.201' stroke-width='1.6' /></g><g partID='96140'><line stroke-linecap='round' stroke='#00a527' x1='222.648' y1='150.298' x2='323.469' y2='150.276' stroke-width='3.2' /><line stroke-linecap='round' stroke='#25cc35' x1='222.648' y1='150.298' x2='323.469' y2='150.276' stroke-width='1.6' /></g><g partID='96150'><line stroke-linecap='round' stroke='#00a527' x1='215.469' y1='150.275' x2='222.648' y2='150.298' stroke-width='3.2' /><line stroke-linecap='round' stroke='#25cc35' x1='215.469' y1='150.275' x2='222.648' y2='150.298' stroke-width='1.6' /></g><g partID='96220'><line stroke-linecap='round' stroke='#00a527' x1='222.648' y1='142.95' x2='215.469' y2='143.075' stroke-width='3.2' /><line stroke-linecap='round' stroke='#25cc35' x1='222.648' y1='142.95' x2='215.469' y2='143.075' stroke-width='1.6' /></g><g partID='96280'><line stroke-linecap='round' stroke='#00a527' x1='272.999' y1='157.374' x2='222.648' y2='142.949' stroke-width='3.2' /><line stroke-linecap='round' stroke='#25cc35' x1='272.999' y1='157.374' x2='222.648' y2='142.949' stroke-width='1.6' /></g><g partID='96230'><line stroke-linecap='round' stroke='#00a527' x1='323.469' y1='157.476' x2='272.999' y2='157.374' stroke-width='3.2' /><line stroke-linecap='round' stroke='#25cc35' x1='323.469' y1='157.476' x2='272.999' y2='157.374' stroke-width='1.6' /></g><g partID='96820'><line stroke-linecap='round' stroke='#8c0000' x1='150.583' y1='200.572' x2='150.669' y2='170.975' stroke-width='3.2' /><line stroke-linecap='round' stroke='#cc1414' x1='150.583' y1='200.572' x2='150.669' y2='170.975' stroke-width='1.6' /></g><g partID='96750'><line stroke-linecap='round' stroke='#8c0000' x1='172.269' y1='200.675' x2='150.583' y2='200.572' stroke-width='3.2' /><line stroke-linecap='round' stroke='#cc1414' x1='172.269' y1='200.675' x2='150.583' y2='200.572' stroke-width='1.6' /></g><g partID='110180'><line stroke-linecap='round' stroke='#000000' x1='136.462' y1='215.208' x2='172.269' y2='215.075' stroke-width='3.2' /><line stroke-linecap='round' stroke='#404040' x1='136.462' y1='215.208' x2='172.269' y2='215.075' stroke-width='1.6' /></g><g partID='96920'><line stroke-linecap='round' stroke='#000000' x1='136.269' y1='207.88' x2='136.462' y2='215.208' stroke-width='3.2' /><line stroke-linecap='round' stroke='#404040' x1='136.269' y1='207.88' x2='136.462' y2='215.208' stroke-width='1.6' /></g><g partID='97180'><line stroke-linecap='round' stroke='#000000' x1='136.269' y1='179.075' x2='136.269' y2='170.975' stroke-width='3.2' /><line stroke-linecap='round' stroke='#404040' x1='136.269' y1='179.075' x2='136.269' y2='170.975' stroke-width='1.6' /></g><g partID='97360'><line stroke-linecap='round' stroke='#00a527' x1='136.327' y1='121.427' x2='136.269' y2='150.275' stroke-width='3.2' /><line stroke-linecap='round' stroke='#25cc35' x1='136.327' y1='121.427' x2='136.269' y2='150.275' stroke-width='1.6' /></g><g partID='97250'><line stroke-linecap='round' stroke='#00a527' x1='172.269' y1='121.475' x2='136.327' y2='121.427' stroke-width='3.2' /><line stroke-linecap='round' stroke='#25cc35' x1='172.269' y1='121.475' x2='136.327' y2='121.427' stroke-width='1.6' /></g><g partID='90460'><line stroke-linecap='round' stroke='#1b5bb3' x1='309.069' y1='200.675' x2='294.669' y2='200.675' stroke-width='3.2' /><line stroke-linecap='round' stroke='#418dd9' x1='309.069' y1='200.675' x2='294.669' y2='200.675' stroke-width='1.6' /></g><g partID='90100'><line stroke-linecap='round' stroke='#000000' x1='280.269' y1='179.075' x2='309.07' y2='179.074' stroke-width='3.2' /><line stroke-linecap='round' stroke='#404040' x1='280.269' y1='179.075' x2='309.07' y2='179.074' stroke-width='1.6' /></g><g partID='89780'><line stroke-linecap='round' stroke='#000000' x1='215.469' y1='200.675' x2='280.269' y2='179.075' stroke-width='3.2' /><line stroke-linecap='round' stroke='#404040' x1='215.469' y1='200.675' x2='280.269' y2='179.075' stroke-width='1.6' /></g><g partID='89890'><line stroke-linecap='round' stroke='#00a527' x1='215.469' y1='186.275' x2='309.069' y2='186.275' stroke-width='3.2' /><line stroke-linecap='round' stroke='#25cc35' x1='215.469' y1='186.275' x2='309.069' y2='186.275' stroke-width='1.6' /></g><g partID='90030'><line stroke-linecap='round' stroke='#8c0000' x1='280.269' y1='193.475' x2='309.07' y2='193.475' stroke-width='3.2' /><line stroke-linecap='round' stroke='#cc1414' x1='280.269' y1='193.475' x2='309.07' y2='193.475' stroke-width='1.6' /></g><g partID='89960'><line stroke-linecap='round' stroke='#8c0000' x1='215.469' y1='179.075' x2='280.269' y2='193.475' stroke-width='3.2' /><line stroke-linecap='round' stroke='#cc1414' x1='215.469' y1='179.075' x2='280.269' y2='193.475' stroke-width='1.6' /></g><g partID='90530'><line stroke-linecap='round' stroke='#1b5bb3' x1='294.669' y1='200.675' x2='294.669' y2='121.475' stroke-width='3.2' /><line stroke-linecap='round' stroke='#418dd9' x1='294.669' y1='200.675' x2='294.669' y2='121.475' stroke-width='1.6' /></g></svg>