<?xml version='1.0' encoding='UTF-8' standalone='no'?>
<!-- Created with Fritzing (http://www.fritzing.org/) -->
<svg xmlns:svg='http://www.w3.org/2000/svg' xmlns='http://www.w3.org/2000/svg' version='1.2' baseProfile='tiny' x='0in' y='0in' width='3.64711in' height='3.08676in' viewBox='0 0 262.592 222.247' >
<g partID='110250'><g transform='translate(28.4925,50.2738)' ><g transform='matrix(0,-1,1,0,0,0)'  ><g id="schematic" xmlns="http://www.w3.org/2000/svg">
<line class="other" stroke-width="1.152" xmlns="http://www.w3.org/2000/svg" y1="0.576" y2="22.176" stroke-linecap="round" x1="11.15" x2="11.15" stroke="#000000"/>
<line class="other" stroke-width="1.152" xmlns="http://www.w3.org/2000/svg" y1="7.776" y2="14.976" stroke-linecap="round" x1="14.75" x2="14.75" stroke="#000000"/>
<line class="other" stroke-width="1.152" xmlns="http://www.w3.org/2000/svg" y1="0.576" y2="22.176" stroke-linecap="round" x1="18.3501" x2="18.3501" stroke="#000000"/>
<line class="other" stroke-width="1.152" xmlns="http://www.w3.org/2000/svg" y1="7.776" y2="14.976" stroke-linecap="round" x1="21.9501" x2="21.9501" stroke="#000000"/>
<line class="other" stroke-width="0.432002" xmlns="http://www.w3.org/2000/svg" y1="11.376" y2="11.376" stroke-linecap="round" x1="7.55002" x2="10.43" stroke="#000000"/>
<line class="pin" id="connector0pin" stroke-width="0.700001" xmlns="http://www.w3.org/2000/svg" y1="11.376" y2="11.376" stroke-linecap="round" x1="29.1502" x2="21.9501" connectorname="-" stroke="#787878"/>
<g class="terminal" id="connector0terminal" height="0.000283465" stroke-width="0" xmlns="http://www.w3.org/2000/svg" fill="none" x="29.1502" y="11.376" stroke="none" width="0.000283466"/>
<text font-family="'Droid Sans'" class="text" stroke-width="0" xmlns="http://www.w3.org/2000/svg" text-anchor="middle" fill="#8c8c8c" font-size="2.50001" x="25.5501" stroke="none" y="10.326">1</text>
<line class="pin" id="connector1pin" stroke-width="0.700001" xmlns="http://www.w3.org/2000/svg" y1="11.376" y2="11.376" stroke-linecap="round" x1="0.350001" x2="7.55002" connectorname="+" stroke="#787878"/>
<g class="terminal" id="connector1terminal" height="0.000283465" stroke-width="0" xmlns="http://www.w3.org/2000/svg" fill="none" x="0.350001" y="11.376" stroke="none" width="0.000283466"/>
<text font-family="'Droid Sans'" class="text" stroke-width="0" xmlns="http://www.w3.org/2000/svg" text-anchor="middle" fill="#8c8c8c" font-size="2.50001" x="3.95001" stroke="none" y="10.326">2</text>
</g>
</g></g></g><g partID='97610'><g transform='translate(104.125,46.683)' ><g transform='matrix(-1,0,0,-1,0,0)'  ><g id="schematic">
<line stroke-width="0.7" y1="11.159" y2="11.159" stroke-linecap="round" x1="19.8" x2="21.6" fill="none" stroke="#000000"/>
<line stroke-width="0.7" y1="11.159" y2="7.559" stroke-linecap="round" x1="7.2" x2="19.8" fill="none" stroke="#000000"/>
<circle stroke-width="0.7" cx="7.2" cy="11.159" r="0.36" fill="none" stroke="#000000"/>
<circle stroke-width="0.7" cx="21.6" cy="11.159" r="0.36" fill="none" stroke="#000000"/>
<g transform="matrix(1, 0, 0, 1, 2.7612, 2.718)">
<text font-family="'DroidSans'" fill="#787878" font-size="2">1</text>
</g>
<g transform="matrix(1, 0, 0, 1, 24.604, 2.718)">
<text font-family="'DroidSans'" fill="#787878" font-size="2">2</text>
</g>
<g transform="matrix(1, 0, 0, 1, 2.7612, 16.843)">
<text font-family="'DroidSans'" fill="#787878" font-size="2">1</text>
</g>
<g transform="matrix(1, 0, 0, 1, 24.604, 16.843)">
<text font-family="'DroidSans'" fill="#787878" font-size="2">2</text>
</g>
<line stroke-width="0.7" y1="3.96" y2="18.359" stroke-linecap="round" x1="21.6" x2="21.6" fill="none" stroke="#000000"/>
<line stroke-width="0.7" y1="3.96" y2="18.359" stroke-linecap="round" x1="7.2" x2="7.2" fill="none" stroke="#000000"/>
<line id="connector3pin" stroke-width="0.7" y1="18.359" y2="18.359" stroke-linecap="round" x1="0.322" x2="7.2" fill="none" stroke="#555555"/>
<line id="connector2pin" stroke-width="0.7" y1="3.96" y2="3.96" stroke-linecap="round" x1="0.322" x2="7.2" fill="none" stroke="#555555"/>
<g id="connector2terminal" fill="none" points="0.822,4.281,0.837,3.64,0,3.64,0,4.281"/>
<g id="connector3terminal" fill="none" points="0.822,18.694,0.837,18.053,0,18.053,0,18.694"/>
<line id="connector1pin" stroke-width="0.7" y1="18.359" y2="18.359" stroke-linecap="round" x1="28.451" x2="21.6" fill="none" stroke="#555555"/>
<g id="connector1terminal" height="0.672" fill="none" x="27.806" y="18.006" width="0.994"/>
<g id="connector0terminal" height="0.719" fill="none" x="27.712" y="3.6" width="1.088"/>
<line id="connector0pin" stroke-width="0.7" y1="3.96" y2="3.96" stroke-linecap="round" x1="28.451" x2="21.6" fill="none" stroke="#555555"/>
</g>
</g></g></g><g partID='97070'><g transform='translate(118.719,25.2272)' ><g id="schematic" xmlns="http://www.w3.org/2000/svg">
<line class="other" stroke-width="0.432002" xmlns="http://www.w3.org/2000/svg" y1="3.096" y2="0.216" stroke-linecap="round" x1="7.55002" x2="8.63003" stroke="#000000"/>
<line class="other" stroke-width="0.432002" xmlns="http://www.w3.org/2000/svg" y1="0.216" y2="5.976" stroke-linecap="round" x1="8.63003" x2="10.43" stroke="#000000"/>
<line class="other" stroke-width="0.432002" xmlns="http://www.w3.org/2000/svg" y1="5.976" y2="0.216" stroke-linecap="round" x1="10.43" x2="12.23" stroke="#000000"/>
<line class="other" stroke-width="0.432002" xmlns="http://www.w3.org/2000/svg" y1="0.216" y2="5.976" stroke-linecap="round" x1="12.23" x2="14.03" stroke="#000000"/>
<line class="other" stroke-width="0.432002" xmlns="http://www.w3.org/2000/svg" y1="5.976" y2="0.216" stroke-linecap="round" x1="14.03" x2="15.8301" stroke="#000000"/>
<line class="other" stroke-width="0.432002" xmlns="http://www.w3.org/2000/svg" y1="0.216" y2="5.976" stroke-linecap="round" x1="15.8301" x2="17.6301" stroke="#000000"/>
<line class="other" stroke-width="0.432002" xmlns="http://www.w3.org/2000/svg" y1="5.976" y2="0.216" stroke-linecap="round" x1="17.6301" x2="19.4301" stroke="#000000"/>
<line class="other" stroke-width="0.432002" xmlns="http://www.w3.org/2000/svg" y1="0.216" y2="5.976" stroke-linecap="round" x1="19.4301" x2="21.2301" stroke="#000000"/>
<line class="other" stroke-width="0.432002" xmlns="http://www.w3.org/2000/svg" y1="5.976" y2="3.096" stroke-linecap="round" x1="21.2301" x2="21.9501" stroke="#000000"/>
<line class="pin" id="connector1pin" stroke-width="0.700001" xmlns="http://www.w3.org/2000/svg" y1="3.096" y2="3.096" stroke-linecap="round" x1="29.1502" x2="21.9501" connectorname="2" stroke="#787878"/>
<g class="terminal" id="connector1terminal" height="0.000283465" stroke-width="0" xmlns="http://www.w3.org/2000/svg" fill="none" x="29.1502" y="3.096" stroke="none" width="0.000283466"/>
<text font-family="'Droid Sans'" class="text" stroke-width="0" xmlns="http://www.w3.org/2000/svg" text-anchor="middle" fill="#8c8c8c" font-size="2.50001" x="25.5501" stroke="none" y="2.046">2</text>
<line class="pin" id="connector0pin" stroke-width="0.700001" xmlns="http://www.w3.org/2000/svg" y1="3.096" y2="3.096" stroke-linecap="round" x1="0.350001" x2="7.55002" connectorname="1" stroke="#787878"/>
<g class="terminal" id="connector0terminal" height="0.000283465" stroke-width="0" xmlns="http://www.w3.org/2000/svg" fill="none" x="0.350001" y="3.096" stroke="none" width="0.000283466"/>
<text font-family="'Droid Sans'" class="text" stroke-width="0" xmlns="http://www.w3.org/2000/svg" text-anchor="middle" fill="#8c8c8c" font-size="2.50001" x="3.95001" stroke="none" y="2.046">1</text>
</g>
</g></g><g partID='58210'><g transform='translate(248.234,96.2225)' ><g transform='matrix(0,1,-1,0,0,0)'  ><g id="schematic" xmlns="http://www.w3.org/2000/svg">
<path xmlns="http://www.w3.org/2000/svg" d="M34.179,9.778l0.875,0c0.188,0,0.354,0.015,0.495,0.043c0.144,0.029,0.265,0.075,0.356,0.139c0.099,0.063,0.171,0.147,0.218,0.251c0.049,0.103,0.071,0.23,0.071,0.381c0,0.091,-0.014,0.176,-0.043,0.255c-0.026,0.079,-0.067,0.148,-0.123,0.209c-0.055,0.06,-0.12,0.11,-0.2,0.15s-0.17,0.066,-0.271,0.08l0,0.021c0.102,0.018,0.195,0.043,0.284,0.076c0.089,0.033,0.166,0.078,0.229,0.137c0.066,0.058,0.119,0.131,0.156,0.219c0.039,0.088,0.06,0.194,0.06,0.32c0,0.146,-0.024,0.277,-0.072,0.393c-0.047,0.114,-0.116,0.212,-0.207,0.292c-0.09,0.08,-0.198,0.141,-0.327,0.184c-0.13,0.042,-0.273,0.063,-0.438,0.063l-1.063,0L34.179,9.778zM34.586,11.142l0.535,0c0.123,0,0.228,-0.012,0.312,-0.033c0.084,-0.022,0.149,-0.055,0.201,-0.098c0.053,-0.044,0.09,-0.098,0.11,-0.163c0.022,-0.065,0.034,-0.141,0.034,-0.228c0,-0.176,-0.057,-0.302,-0.17,-0.378c-0.112,-0.076,-0.291,-0.114,-0.532,-0.114l-0.49,0L34.586,11.142zM34.586,11.483l0,1.16l0.584,0c0.129,0,0.235,-0.014,0.324,-0.043c0.088,-0.029,0.157,-0.07,0.211,-0.123s0.092,-0.116,0.114,-0.19c0.022,-0.074,0.035,-0.155,0.035,-0.245c0,-0.082,-0.013,-0.157,-0.037,-0.227c-0.022,-0.068,-0.063,-0.128,-0.116,-0.177c-0.056,-0.049,-0.13,-0.087,-0.22,-0.114c-0.092,-0.027,-0.205,-0.041,-0.338,-0.041L34.586,11.483z" fill="#787878"/>
<path xmlns="http://www.w3.org/2000/svg" d="M18.565,15.1c-0.193,0,-0.35,-0.157,-0.35,-0.35l0,-7.2c0,-0.193,0.157,-0.35,0.35,-0.35s0.35,0.157,0.35,0.35l0,7.2C18.916,14.943,18.758,15.1,18.565,15.1z"/>
<path xmlns="http://www.w3.org/2000/svg" d="M18.565,7.55L18.565,7.55L18.565,7.55z" fill="none"/>
<path xmlns="http://www.w3.org/2000/svg" d="M21.059,11.295l1.063,0l0,1.575c-0.081,0.026,-0.162,0.05,-0.243,0.07c-0.083,0.021,-0.167,0.038,-0.254,0.052c-0.086,0.014,-0.178,0.024,-0.271,0.032c-0.096,0.007,-0.197,0.011,-0.309,0.011c-0.229,0,-0.434,-0.038,-0.61,-0.115c-0.176,-0.077,-0.327,-0.187,-0.448,-0.33c-0.121,-0.143,-0.213,-0.316,-0.276,-0.521c-0.063,-0.205,-0.095,-0.434,-0.095,-0.688c0,-0.252,0.035,-0.479,0.104,-0.684c0.07,-0.203,0.171,-0.377,0.305,-0.521c0.133,-0.143,0.297,-0.253,0.493,-0.33c0.195,-0.076,0.418,-0.115,0.668,-0.115c0.163,0,0.318,0.017,0.47,0.049c0.147,0.032,0.287,0.079,0.418,0.141l-0.158,0.355c-0.053,-0.024,-0.11,-0.048,-0.172,-0.07c-0.062,-0.021,-0.123,-0.041,-0.188,-0.058c-0.064,-0.018,-0.131,-0.03,-0.197,-0.041c-0.068,-0.01,-0.137,-0.016,-0.205,-0.016c-0.178,0,-0.336,0.03,-0.475,0.089c-0.137,0.06,-0.252,0.146,-0.346,0.257c-0.094,0.111,-0.164,0.246,-0.211,0.406c-0.049,0.159,-0.073,0.34,-0.073,0.54c0,0.19,0.021,0.365,0.062,0.523c0.039,0.158,0.104,0.294,0.191,0.408c0.088,0.114,0.201,0.203,0.34,0.267c0.141,0.063,0.307,0.094,0.504,0.094c0.064,0,0.123,-0.002,0.178,-0.005c0.054,-0.004,0.103,-0.009,0.146,-0.015c0.046,-0.006,0.089,-0.013,0.129,-0.021c0.041,-0.009,0.08,-0.016,0.117,-0.023l0,-0.958L21.06,11.653L21.059,11.295L21.059,11.295z" fill="#787878"/>
<path xmlns="http://www.w3.org/2000/svg" d="M32.963,15.1c-0.192,0,-0.351,-0.157,-0.351,-0.35L32.612,7.9L4.515,7.9l0,6.85c0,0.193,-0.157,0.35,-0.35,0.35s-0.35,-0.157,-0.35,-0.35L3.815,7.2l29.499,0l0,7.55C33.313,14.943,33.155,15.1,32.963,15.1z"/>
<path xmlns="http://www.w3.org/2000/svg" d="M5.787,11.664l0,1.327L5.379,12.991L5.379,9.778l0.782,0c0.389,0,0.677,0.076,0.863,0.227c0.186,0.151,0.279,0.38,0.279,0.686c0,0.128,-0.018,0.239,-0.054,0.334c-0.036,0.096,-0.083,0.177,-0.143,0.245s-0.127,0.125,-0.204,0.171c-0.076,0.045,-0.154,0.082,-0.235,0.111l0.875,1.439L7.061,12.991L6.29,11.664L5.787,11.664zM5.787,11.317l0.36,0c0.132,0,0.244,-0.014,0.336,-0.039c0.092,-0.025,0.168,-0.063,0.228,-0.114c0.059,-0.051,0.103,-0.113,0.129,-0.188c0.027,-0.076,0.041,-0.164,0.041,-0.266c0,-0.105,-0.015,-0.194,-0.045,-0.268c-0.03,-0.073,-0.075,-0.133,-0.136,-0.18c-0.061,-0.046,-0.138,-0.08,-0.231,-0.102c-0.093,-0.021,-0.203,-0.032,-0.331,-0.032L5.787,10.128L5.787,11.317z" fill="#787878"/>
<path xmlns="http://www.w3.org/2000/svg" d="M36.563,15.1l-3.602,0c-0.193,0,-0.35,-0.157,-0.35,-0.35s0.156,-0.35,0.35,-0.35l3.602,0c0.193,0,0.352,0.157,0.352,0.35S36.758,15.1,36.563,15.1z"/>
<path xmlns="http://www.w3.org/2000/svg" d="M32.963,15.1l-3.598,0c-0.193,0,-0.351,-0.157,-0.351,-0.35s0.155,-0.35,0.351,-0.35l3.598,0c0.192,0,0.351,0.157,0.351,0.35S33.155,15.1,32.963,15.1z"/>
<polygon xmlns="http://www.w3.org/2000/svg" fill="#FFFFFF" points="36.563,21.951,32.963,21.951,29.365,21.951,32.963,14.75"/>
<path xmlns="http://www.w3.org/2000/svg" d="M37.131,22.3l-8.332,0l4.164,-8.333L37.131,22.3zM29.933,21.599l6.065,0l-3.035,-6.066L29.933,21.599z"/>
<path xmlns="http://www.w3.org/2000/svg" d="M32.963,22.175c-0.124,0,-0.226,-0.102,-0.226,-0.225L32.737,14.75c0,-0.124,0.102,-0.225,0.226,-0.225s0.226,0.101,0.226,0.225l0,7.201C33.188,22.074,33.087,22.175,32.963,22.175z"/>
<path xmlns="http://www.w3.org/2000/svg" d="M37.582,16.414c-0.06,0,-0.115,-0.021,-0.159,-0.063c-0.088,-0.088,-0.088,-0.229,0,-0.317l2.34,-2.34c0.088,-0.088,0.229,-0.088,0.318,0c0.088,0.088,0.088,0.23,0,0.318L37.74,16.35C37.696,16.392,37.64,16.414,37.582,16.414z"/>
<path xmlns="http://www.w3.org/2000/svg" d="M37.224,13.176c-0.059,0,-0.115,-0.022,-0.158,-0.066c-0.09,-0.088,-0.09,-0.23,0,-0.318l2.34,-2.34c0.088,-0.088,0.229,-0.088,0.316,0s0.088,0.23,0,0.318l-2.34,2.34C37.338,13.154,37.278,13.176,37.224,13.176z"/>
<path xmlns="http://www.w3.org/2000/svg" d="M41.542,12.231l-1.08,2.52l-1.438,-1.439L41.542,12.231z"/>
<path xmlns="http://www.w3.org/2000/svg" d="M41.183,8.991l-1.078,2.52l-1.438,-1.438L41.183,8.991z"/>
<path xmlns="http://www.w3.org/2000/svg" d="M22.165,15.1l-3.599,0c-0.193,0,-0.35,-0.157,-0.35,-0.35s0.157,-0.35,0.35,-0.35l3.599,0c0.193,0,0.35,0.157,0.35,0.35S22.358,15.1,22.165,15.1z"/>
<path xmlns="http://www.w3.org/2000/svg" d="M18.565,15.1l-3.601,0c-0.193,0,-0.35,-0.157,-0.35,-0.35s0.157,-0.35,0.35,-0.35l3.601,0c0.193,0,0.35,0.157,0.35,0.35S18.758,15.1,18.565,15.1z"/>
<polygon xmlns="http://www.w3.org/2000/svg" fill="#FFFFFF" points="22.165,21.951,18.565,21.951,14.964,21.951,18.565,14.75"/>
<path xmlns="http://www.w3.org/2000/svg" d="M22.731,22.3l-8.333,0l4.167,-8.333L22.731,22.3zM15.53,21.599l6.067,0l-3.033,-6.066L15.53,21.599z"/>
<path xmlns="http://www.w3.org/2000/svg" d="M18.565,22.175c-0.124,0,-0.225,-0.102,-0.225,-0.225L18.34,14.75c0,-0.124,0.101,-0.225,0.225,-0.225s0.225,0.101,0.225,0.225l0,7.201C18.791,22.074,18.689,22.175,18.565,22.175z"/>
<path xmlns="http://www.w3.org/2000/svg" d="M23.183,16.414c-0.058,0,-0.113,-0.021,-0.158,-0.063c-0.088,-0.088,-0.088,-0.229,0,-0.317l2.342,-2.34c0.088,-0.088,0.229,-0.088,0.316,0c0.09,0.088,0.09,0.23,0,0.318l-2.341,2.339C23.298,16.392,23.24,16.414,23.183,16.414z"/>
<path xmlns="http://www.w3.org/2000/svg" d="M22.821,13.176c-0.057,0,-0.114,-0.022,-0.159,-0.066c-0.088,-0.088,-0.088,-0.23,0,-0.318l2.34,-2.34c0.088,-0.088,0.229,-0.088,0.317,0s0.088,0.23,0,0.318l-2.34,2.34C22.938,13.154,22.88,13.176,22.821,13.176z"/>
<path xmlns="http://www.w3.org/2000/svg" d="M27.144,12.231l-1.08,2.52l-1.438,-1.439L27.144,12.231z"/>
<path xmlns="http://www.w3.org/2000/svg" d="M26.783,8.991l-1.08,2.52l-1.438,-1.438L26.783,8.991z"/>
<path xmlns="http://www.w3.org/2000/svg" d="M7.766,15.1L4.165,15.1c-0.193,0,-0.35,-0.157,-0.35,-0.35s0.157,-0.35,0.35,-0.35l3.601,0c0.193,0,0.35,0.157,0.35,0.35S7.959,15.1,7.766,15.1z"/>
<path xmlns="http://www.w3.org/2000/svg" d="M4.165,15.1L0.566,15.1c-0.193,0,-0.35,-0.157,-0.35,-0.35s0.157,-0.35,0.35,-0.35l3.599,0c0.193,0,0.35,0.157,0.35,0.35S4.359,15.1,4.165,15.1z"/>
<polygon xmlns="http://www.w3.org/2000/svg" fill="#FFFFFF" points="7.766,21.951,4.165,21.951,0.566,21.951,4.165,14.75"/>
<path xmlns="http://www.w3.org/2000/svg" d="M8.332,22.3L0,22.3l4.166,-8.333L8.332,22.3zM1.133,21.599L7.2,21.599l-3.034,-6.066L1.133,21.599z"/>
<path xmlns="http://www.w3.org/2000/svg" d="M4.165,22.175c-0.124,0,-0.225,-0.102,-0.225,-0.225L3.94,14.75c0,-0.124,0.101,-0.225,0.225,-0.225S4.39,14.626,4.39,14.75l0,7.201C4.39,22.074,4.289,22.175,4.165,22.175z"/>
<path xmlns="http://www.w3.org/2000/svg" d="M8.783,16.414c-0.058,0,-0.115,-0.021,-0.159,-0.063c-0.088,-0.088,-0.088,-0.229,0,-0.317l2.339,-2.34c0.088,-0.088,0.23,-0.088,0.318,0c0.088,0.088,0.088,0.23,0,0.318L8.942,16.35C8.898,16.392,8.841,16.414,8.783,16.414z"/>
<path xmlns="http://www.w3.org/2000/svg" d="M8.422,13.176c-0.058,0,-0.115,-0.022,-0.159,-0.066c-0.087,-0.088,-0.087,-0.23,0,-0.318l2.341,-2.34c0.088,-0.088,0.23,-0.088,0.318,0s0.088,0.23,0,0.318l-2.341,2.34C8.537,13.154,8.48,13.176,8.422,13.176z"/>
<path xmlns="http://www.w3.org/2000/svg" d="M12.743,12.231l-1.08,2.52l-1.439,-1.439L12.743,12.231z"/>
<path xmlns="http://www.w3.org/2000/svg" d="M12.382,8.991l-1.08,2.52l-1.438,-1.438L12.382,8.991z"/>
<g xmlns="http://www.w3.org/2000/svg">
<path id="connector2pin" xmlns="http://www.w3.org/2000/svg" d="M32.964,29.5c-0.193,0,-0.35,-0.156,-0.35,-0.35l0,-7.199c0,-0.193,0.156,-0.352,0.35,-0.352c0.194,0,0.35,0.156,0.35,0.352l0,7.199C33.313,29.343,33.157,29.5,32.964,29.5z" fill="#787878"/>
<g id="connector2terminal" height="2.397" xmlns="http://www.w3.org/2000/svg" fill="none" x="32.663" y="27.167" width="0.75"/>
<path id="connector1pin" xmlns="http://www.w3.org/2000/svg" d="M18.567,7.9c-0.193,0,-0.35,-0.157,-0.35,-0.35l0,-7.2c0,-0.193,0.157,-0.35,0.35,-0.35s0.35,0.157,0.35,0.35l0,7.2C18.917,7.744,18.76,7.9,18.567,7.9z" fill="#787878"/>
<g id="connector1terminal" height="2.399" xmlns="http://www.w3.org/2000/svg" fill="none" x="18.205" width="0.75"/>
<path id="connector3pin" xmlns="http://www.w3.org/2000/svg" d="M18.566,29.5c-0.193,0,-0.35,-0.156,-0.35,-0.35l0,-7.199c0,-0.193,0.157,-0.352,0.35,-0.352s0.35,0.156,0.35,0.352l0,7.199C18.916,29.343,18.759,29.5,18.566,29.5z" fill="#787878"/>
<g id="connector3terminal" height="2.397" xmlns="http://www.w3.org/2000/svg" fill="none" x="18.163" y="27.167" width="0.75"/>
<path id="connector0pin" xmlns="http://www.w3.org/2000/svg" d="M4.165,29.5c-0.193,0,-0.35,-0.156,-0.35,-0.35l0,-7.199c0,-0.193,0.157,-0.352,0.35,-0.352s0.35,0.156,0.35,0.352l0,7.199C4.515,29.343,4.359,29.5,4.165,29.5z" fill="#787878"/>
<g id="connector0terminal" height="2.397" xmlns="http://www.w3.org/2000/svg" fill="none" x="3.726" y="27.167" width="0.75"/>
</g>
</g>
</g></g></g><g partID='57860'><g transform='translate(11.0687,49.9235)' ><g id="schematic">
<rect class="interior rect" height="128.7" stroke-width="0.9" stroke-linecap="round" fill="#FFFFFF" x="14.85" y="14.85" stroke="#000000" width="56.7"/>
<line class="pin" id="connector45pin" stroke-width="0" y1="28.8" y2="28.8" stroke-linecap="round" x1="71.6499" x2="86.0499" fill="none" stroke="none"/>
<g class="terminal" height="0.699999" id="connector45terminal" stroke-width="0" fill="none" x="86.0499" y="28.4499" stroke="none" width="0.699999"/>
<line class="pin" id="connector57pin" stroke-width="0.699999" y1="28.8" y2="28.8" stroke-linecap="round" x1="71.6499" x2="86.0499" fill="none" stroke="#787878"/>
<text font-family="'Droid Sans'" class="text" stroke-width="0" text-anchor="end" fill="#8c8c8c" font-size="3.49999" x="70.2499" stroke="none" y="29.4999">D13/SCK</text>
<rect class="terminal" height="0.699999" id="connector57terminal" stroke-width="0" fill="none" x="86.0499" y="28.4499" stroke="none" width="0.699999"/>
<line class="pin" id="connector30pin" stroke-width="0" y1="36" y2="36" stroke-linecap="round" x1="71.6499" x2="86.0499" fill="none" stroke="none"/>
<g class="terminal" height="0.699999" id="connector30terminal" stroke-width="0" fill="none" x="86.0499" y="35.6499" stroke="none" width="0.699999"/>
<line class="pin" id="connector55pin" stroke-width="0.699999" y1="36" y2="36" stroke-linecap="round" x1="71.6499" x2="86.0499" fill="none" stroke="#787878"/>
<text font-family="'Droid Sans'" class="text" stroke-width="0" text-anchor="end" fill="#8c8c8c" font-size="3.49999" x="70.2499" stroke="none" y="36.6999">D12/MISO</text>
<rect class="terminal" height="0.699999" id="connector55terminal" stroke-width="0" fill="none" x="86.0499" y="35.6499" stroke="none" width="0.699999"/>
<line class="pin" id="connector29pin" stroke-width="0" y1="43.2" y2="43.2" stroke-linecap="round" x1="71.6499" x2="86.0499" fill="none" stroke="none"/>
<g class="terminal" height="0.699999" id="connector29terminal" stroke-width="0" fill="none" x="86.0499" y="42.8499" stroke="none" width="0.699999"/>
<line class="pin" id="connector58pin" stroke-width="0.699999" y1="43.2" y2="43.2" stroke-linecap="round" x1="71.6499" x2="86.0499" fill="none" stroke="#787878"/>
<text font-family="'Droid Sans'" class="text" stroke-width="0" text-anchor="end" fill="#8c8c8c" font-size="3.49999" x="70.2499" stroke="none" y="43.8999">D11/MOSI</text>
<rect class="terminal" height="0.699999" id="connector58terminal" stroke-width="0" fill="none" x="86.0499" y="42.8499" stroke="none" width="0.699999"/>
<line class="pin" id="connector28pin" stroke-width="0.699999" y1="50.4" y2="50.4" stroke-linecap="round" x1="71.6499" x2="86.0499" fill="none" stroke="#787878"/>
<text font-family="'Droid Sans'" class="text" stroke-width="0" text-anchor="end" fill="#8c8c8c" font-size="3.49999" x="70.2499" stroke="none" y="51.0999">D10</text>
<g class="terminal" height="0.699999" id="connector28terminal" stroke-width="0" fill="none" x="86.0499" y="50.0499" stroke="none" width="0.699999"/>
<line class="pin" id="connector27pin" stroke-width="0.699999" y1="57.6" y2="57.6" stroke-linecap="round" x1="71.6499" x2="86.0499" fill="none" stroke="#787878"/>
<text font-family="'Droid Sans'" class="text" stroke-width="0" text-anchor="end" fill="#8c8c8c" font-size="3.49999" x="70.2499" stroke="none" y="58.2999">D9</text>
<g class="terminal" height="0.699999" id="connector27terminal" stroke-width="0" fill="none" x="86.0499" y="57.2499" stroke="none" width="0.699999"/>
<line class="pin" id="connector26pin" stroke-width="0.699999" y1="64.8" y2="64.8" stroke-linecap="round" x1="71.6499" x2="86.0499" fill="none" stroke="#787878"/>
<text font-family="'Droid Sans'" class="text" stroke-width="0" text-anchor="end" fill="#8c8c8c" font-size="3.49999" x="70.2499" stroke="none" y="65.4999">D8</text>
<g class="terminal" height="0.699999" id="connector26terminal" stroke-width="0" fill="none" x="86.0499" y="64.4499" stroke="none" width="0.699999"/>
<line class="pin" id="connector25pin" stroke-width="0.699999" y1="72" y2="72" stroke-linecap="round" x1="71.6499" x2="86.0499" fill="none" stroke="#787878"/>
<text font-family="'Droid Sans'" class="text" stroke-width="0" text-anchor="end" fill="#8c8c8c" font-size="3.49999" x="70.2499" stroke="none" y="72.6999">D7</text>
<g class="terminal" height="0.699999" id="connector25terminal" stroke-width="0" fill="none" x="86.0499" y="71.6499" stroke="none" width="0.699999"/>
<line class="pin" id="connector24pin" stroke-width="0.699999" y1="79.2" y2="79.2" stroke-linecap="round" x1="71.6499" x2="86.0499" fill="none" stroke="#787878"/>
<text font-family="'Droid Sans'" class="text" stroke-width="0" text-anchor="end" fill="#8c8c8c" font-size="3.49999" x="70.2499" stroke="none" y="79.8999">D6</text>
<g class="terminal" height="0.699999" id="connector24terminal" stroke-width="0" fill="none" x="86.0499" y="78.8499" stroke="none" width="0.699999"/>
<line class="pin" id="connector23pin" stroke-width="0.699999" y1="86.4" y2="86.4" stroke-linecap="round" x1="71.6499" x2="86.0499" fill="none" stroke="#787878"/>
<text font-family="'Droid Sans'" class="text" stroke-width="0" text-anchor="end" fill="#8c8c8c" font-size="3.49999" x="70.2499" stroke="none" y="87.0999">D5</text>
<g class="terminal" height="0.699999" id="connector23terminal" stroke-width="0" fill="none" x="86.0499" y="86.0499" stroke="none" width="0.699999"/>
<line class="pin" id="connector22pin" stroke-width="0.699999" y1="93.6" y2="93.6" stroke-linecap="round" x1="71.6499" x2="86.0499" fill="none" stroke="#787878"/>
<text font-family="'Droid Sans'" class="text" stroke-width="0" text-anchor="end" fill="#8c8c8c" font-size="3.49999" x="70.2499" stroke="none" y="94.2999">D4</text>
<g class="terminal" height="0.699999" id="connector22terminal" stroke-width="0" fill="none" x="86.0499" y="93.2499" stroke="none" width="0.699999"/>
<line class="pin" id="connector21pin" stroke-width="0.699999" y1="100.8" y2="100.8" stroke-linecap="round" x1="71.6499" x2="86.0499" fill="none" stroke="#787878"/>
<text font-family="'Droid Sans'" class="text" stroke-width="0" text-anchor="end" fill="#8c8c8c" font-size="3.49999" x="70.2499" stroke="none" y="101.5">D3</text>
<g class="terminal" height="0.699999" id="connector21terminal" stroke-width="0" fill="none" x="86.0499" y="100.45" stroke="none" width="0.699999"/>
<line class="pin" id="connector20pin" stroke-width="0.699999" y1="108" y2="108" stroke-linecap="round" x1="71.6499" x2="86.0499" fill="none" stroke="#787878"/>
<text font-family="'Droid Sans'" class="text" stroke-width="0" text-anchor="end" fill="#8c8c8c" font-size="3.49999" x="70.2499" stroke="none" y="108.7">D2</text>
<g class="terminal" height="0.699999" id="connector20terminal" stroke-width="0" fill="none" x="86.0499" y="107.65" stroke="none" width="0.699999"/>
<line class="pin" id="connector16pin" stroke-width="0.699999" y1="122.4" y2="122.4" stroke-linecap="round" x1="71.6499" x2="86.0499" fill="none" stroke="#787878"/>
<text font-family="'Droid Sans'" class="text" stroke-width="0" text-anchor="end" fill="#8c8c8c" font-size="3.49999" x="70.2499" stroke="none" y="123.1">D1/TX</text>
<g class="terminal" height="0.699999" id="connector16terminal" stroke-width="0" fill="none" x="86.0499" y="122.05" stroke="none" width="0.699999"/>
<line class="pin" id="connector17pin" stroke-width="0.699999" y1="129.6" y2="129.6" stroke-linecap="round" x1="71.6499" x2="86.0499" fill="none" stroke="#787878"/>
<text font-family="'Droid Sans'" class="text" stroke-width="0" text-anchor="end" fill="#8c8c8c" font-size="3.49999" x="70.2499" stroke="none" y="130.3">D0/RX</text>
<g class="terminal" height="0.699999" id="connector17terminal" stroke-width="0" fill="none" x="86.0499" y="129.25" stroke="none" width="0.699999"/>
<line class="pin" id="connector33pin" stroke-width="0" y1="28.8" y2="28.8" stroke-linecap="round" x1="0.349999" x2="14.75" fill="none" stroke="none"/>
<g class="terminal" height="0.699999" id="connector33terminal" stroke-width="0" fill="none" x="-0.349999" y="28.4499" stroke="none" width="0.699999"/>
<line class="pin" id="connector18pin" stroke-width="0" y1="28.8" y2="28.8" stroke-linecap="round" x1="0.349999" x2="14.75" fill="none" stroke="none"/>
<g class="terminal" height="0.699999" id="connector18terminal" stroke-width="0" fill="none" x="-0.349999" y="28.4499" stroke="none" width="0.699999"/>
<line class="pin" id="connector59pin" stroke-width="0.699999" y1="28.8" y2="28.8" stroke-linecap="round" x1="0.349999" x2="14.75" fill="none" stroke="#787878"/>
<text font-family="'Droid Sans'" class="text" stroke-width="0" text-anchor="start" fill="#8c8c8c" font-size="3.49999" x="16.15" stroke="none" y="29.4999">RESET</text>
<rect class="terminal" height="0.699999" id="connector59terminal" stroke-width="0" fill="none" x="-0.349999" y="28.4499" stroke="none" width="0.699999"/>
<line class="pin" id="connector43pin" stroke-width="0.699999" y1="36" y2="36" stroke-linecap="round" x1="0.349999" x2="14.75" fill="none" stroke="#787878"/>
<text font-family="'Droid Sans'" class="text" stroke-width="0" text-anchor="start" fill="#8c8c8c" font-size="3.49999" x="16.15" stroke="none" y="36.6999">AREF</text>
<g class="terminal" height="0.699999" id="connector43terminal" stroke-width="0" fill="none" x="-0.349999" y="35.6499" stroke="none" width="0.699999"/>
<line class="pin" id="connector42pin" stroke-width="0.699999" y1="50.4" y2="50.4" stroke-linecap="round" x1="0.349999" x2="14.75" fill="none" stroke="#787878"/>
<text font-family="'Droid Sans'" class="text" stroke-width="0" text-anchor="start" fill="#8c8c8c" font-size="3.49999" x="16.15" stroke="none" y="51.0999">A0</text>
<g class="terminal" height="0.699999" id="connector42terminal" stroke-width="0" fill="none" x="-0.349999" y="50.0499" stroke="none" width="0.699999"/>
<line class="pin" id="connector41pin" stroke-width="0.699999" y1="57.6" y2="57.6" stroke-linecap="round" x1="0.349999" x2="14.75" fill="none" stroke="#787878"/>
<text font-family="'Droid Sans'" class="text" stroke-width="0" text-anchor="start" fill="#8c8c8c" font-size="3.49999" x="16.15" stroke="none" y="58.2999">A1</text>
<g class="terminal" height="0.699999" id="connector41terminal" stroke-width="0" fill="none" x="-0.349999" y="57.2499" stroke="none" width="0.699999"/>
<line class="pin" id="connector40pin" stroke-width="0.699999" y1="64.8" y2="64.8" stroke-linecap="round" x1="0.349999" x2="14.75" fill="none" stroke="#787878"/>
<text font-family="'Droid Sans'" class="text" stroke-width="0" text-anchor="start" fill="#8c8c8c" font-size="3.49999" x="16.15" stroke="none" y="65.4999">A2</text>
<g class="terminal" height="0.699999" id="connector40terminal" stroke-width="0" fill="none" x="-0.349999" y="64.4499" stroke="none" width="0.699999"/>
<line class="pin" id="connector39pin" stroke-width="0.699999" y1="72" y2="72" stroke-linecap="round" x1="0.349999" x2="14.75" fill="none" stroke="#787878"/>
<text font-family="'Droid Sans'" class="text" stroke-width="0" text-anchor="start" fill="#8c8c8c" font-size="3.49999" x="16.15" stroke="none" y="72.6999">A3</text>
<g class="terminal" height="0.699999" id="connector39terminal" stroke-width="0" fill="none" x="-0.349999" y="71.6499" stroke="none" width="0.699999"/>
<line class="pin" id="connector38pin" stroke-width="0.699999" y1="79.2" y2="79.2" stroke-linecap="round" x1="0.349999" x2="14.75" fill="none" stroke="#787878"/>
<text font-family="'Droid Sans'" class="text" stroke-width="0" text-anchor="start" fill="#8c8c8c" font-size="3.49999" x="16.15" stroke="none" y="79.8999">A4</text>
<g class="terminal" height="0.699999" id="connector38terminal" stroke-width="0" fill="none" x="-0.349999" y="78.8499" stroke="none" width="0.699999"/>
<line class="pin" id="connector37pin" stroke-width="0.699999" y1="86.4" y2="86.4" stroke-linecap="round" x1="0.349999" x2="14.75" fill="none" stroke="#787878"/>
<text font-family="'Droid Sans'" class="text" stroke-width="0" text-anchor="start" fill="#8c8c8c" font-size="3.49999" x="16.15" stroke="none" y="87.0999">A5</text>
<g class="terminal" height="0.699999" id="connector37terminal" stroke-width="0" fill="none" x="-0.349999" y="86.0499" stroke="none" width="0.699999"/>
<line class="pin" id="connector36pin" stroke-width="0.699999" y1="93.6" y2="93.6" stroke-linecap="round" x1="0.349999" x2="14.75" fill="none" stroke="#787878"/>
<text font-family="'Droid Sans'" class="text" stroke-width="0" text-anchor="start" fill="#8c8c8c" font-size="3.49999" x="16.15" stroke="none" y="94.2999">A6</text>
<g class="terminal" height="0.699999" id="connector36terminal" stroke-width="0" fill="none" x="-0.349999" y="93.2499" stroke="none" width="0.699999"/>
<line class="pin" id="connector35pin" stroke-width="0.699999" y1="100.8" y2="100.8" stroke-linecap="round" x1="0.349999" x2="14.75" fill="none" stroke="#787878"/>
<text font-family="'Droid Sans'" class="text" stroke-width="0" text-anchor="start" fill="#8c8c8c" font-size="3.49999" x="16.15" stroke="none" y="101.5">A7</text>
<g class="terminal" height="0.699999" id="connector35terminal" stroke-width="0" fill="none" x="-0.349999" y="100.45" stroke="none" width="0.699999"/>
<line class="pin" id="connector19pin" stroke-width="0" y1="143.65" y2="158.05" stroke-linecap="round" x1="43.2" x2="43.2" fill="none" stroke="none"/>
<g class="terminal" height="0.699999" id="connector19terminal" stroke-width="0" fill="none" x="42.8499" y="158.05" stroke="none" width="0.699999"/>
<line class="pin" id="connector32pin" stroke-width="0" y1="143.65" y2="158.05" stroke-linecap="round" x1="43.2" x2="43.2" fill="none" stroke="none"/>
<g class="terminal" height="0.699999" id="connector32terminal" stroke-width="0" fill="none" x="42.8499" y="158.05" stroke="none" width="0.699999"/>
<line class="pin" id="connector60pin" stroke-width="0.699999" y1="143.65" y2="158.05" stroke-linecap="round" x1="43.2" x2="43.2" fill="none" stroke="#787878"/>
<g transform="matrix(1, 0, 0, 1, 43.8999, 142.25)">
<g>
<g transform="rotate(270)">
<g>
<text font-family="'Droid Sans'" class="text" stroke-width="0" text-anchor="start" fill="#8c8c8c" font-size="3.49999" x="0" stroke="none" y="0">GND</text>
</g>
</g>
</g>
</g>
<rect class="terminal" height="0.699999" id="connector60terminal" stroke-width="0" fill="none" x="42.8499" y="158.05" stroke="none" width="0.699999"/>
<line class="pin" id="connector31pin" stroke-width="0.699999" y1="0.349999" y2="14.75" stroke-linecap="round" x1="28.8" x2="28.8" fill="none" stroke="#787878"/>
<g transform="matrix(1, 0, 0, 1, 29.4999, 16.15)">
<g>
<g transform="rotate(270)">
<g>
<text font-family="'Droid Sans'" class="text" stroke-width="0" text-anchor="end" fill="#8c8c8c" font-size="3.49999" x="0" stroke="none" y="0">VIN</text>
</g>
</g>
</g>
</g>
<g class="terminal" height="0.699999" id="connector31terminal" stroke-width="0" fill="none" x="28.4499" y="-0.349999" stroke="none" width="0.699999"/>
<line class="pin" id="connector34pin" stroke-width="0" y1="0.349999" y2="14.75" stroke-linecap="round" x1="43.2" x2="43.2" fill="none" stroke="none"/>
<g class="terminal" height="0.699999" id="connector34terminal" stroke-width="0" fill="none" x="42.8499" y="-0.349999" stroke="none" width="0.699999"/>
<line class="pin" id="connector56pin" stroke-width="0.699999" y1="0.349999" y2="14.75" stroke-linecap="round" x1="43.2" x2="43.2" fill="none" stroke="#787878"/>
<g transform="matrix(1, 0, 0, 1, 43.8999, 16.15)">
<g>
<g transform="rotate(270)">
<g>
<text font-family="'Droid Sans'" class="text" stroke-width="0" text-anchor="end" fill="#8c8c8c" font-size="3.49999" x="0" stroke="none" y="0">5V</text>
</g>
</g>
</g>
</g>
<rect class="terminal" height="0.699999" id="connector56terminal" stroke-width="0" fill="none" x="42.8499" y="-0.349999" stroke="none" width="0.699999"/>
<line class="pin" id="connector44pin" stroke-width="0.699999" y1="0.349999" y2="14.75" stroke-linecap="round" x1="57.6" x2="57.6" fill="none" stroke="#787878"/>
<g transform="matrix(1, 0, 0, 1, 58.2999, 16.15)">
<g>
<g transform="rotate(270)">
<g>
<text font-family="'Droid Sans'" class="text" stroke-width="0" text-anchor="end" fill="#8c8c8c" font-size="3.49999" x="0" stroke="none" y="0">3V3</text>
</g>
</g>
</g>
</g>
<g class="terminal" height="0.699999" id="connector44terminal" stroke-width="0" fill="none" x="57.2499" y="-0.349999" stroke="none" width="0.699999"/>
<text font-family="'Droid Sans'" class="text" id="label" stroke-width="0" text-anchor="middle" fill="#000000" font-size="4.25001" x="43.6499" stroke="none" y="72.8498">Arduino</text>
<text font-family="'Droid Sans'" class="text" id="label" stroke-width="0" text-anchor="middle" fill="#000000" font-size="4.25001" x="43.6499" stroke="none" y="77.3833">Nano</text>
<text font-family="'Droid Sans'" class="text" id="label" stroke-width="0" text-anchor="middle" fill="#000000" font-size="4.25001" x="43.6499" stroke="none" y="81.9167">(Rev3.0)</text>
</g>
</g></g><g partID='89750'><g transform='translate(133.119,135.747)' ><g id="schematic">
<rect height="43.199" fill="#FFFFFF" x="14.75" y="0.576" width="21.6"/>
<rect height="43.199" fill="#FFFFFF" x="14.75" y="0.576" width="21.6"/>
<rect height="43.199" fill="#FFFFFF" x="14.75" y="0.576" width="21.6"/>
<g transform="matrix(1, 0, 0, 1, 18.5647, 14.0002)">
<text font-family="'DroidSans'" id="label_3_" font-size="4.25">RF LINK</text>
</g>
<g transform="matrix(1, 0, 0, 1, 23.6921, 18.5334)">
<text font-family="'DroidSans'" id="label_4_" font-size="4.25">TX</text>
</g>
<line stroke-width="0.9" y1="43.776" y2="43.776" stroke-linecap="round" x1="36.35" x2="14.75" fill="none" stroke="#000000"/>
<line stroke-width="0.9" y1="0.576" y2="43.776" stroke-linecap="round" x1="14.75" x2="14.75" fill="none" stroke="#000000"/>
<line stroke-width="0.9" y1="43.776" y2="0.576" stroke-linecap="round" x1="36.35" x2="36.35" fill="none" stroke="#000000"/>
<line stroke-width="0.9" y1="0.576" y2="0.576" stroke-linecap="round" x1="14.75" x2="36.35" fill="none" stroke="#000000"/>
<line id="connector2pin" stroke-width="0.75" y1="36.576" y2="36.576" stroke-linecap="round" x1="0.35" x2="14.75" fill="none" stroke="#787878"/>
<g id="connector2terminal" height="0" fill="none" x="0.35" y="36.576" width="0"/>
<g transform="matrix(1, 0, 0, 1, 6.8616, 35.5256)">
<text font-family="'DroidSans'" fill="#8C8C8C" font-size="2.5">3</text>
</g>
<g transform="matrix(1, 0, 0, 1, 16.8499, 37.2756)">
<text font-family="'DroidSans'" fill="#787878" font-size="3.5">GND</text>
</g>
<line id="connector1pin" stroke-width="0.75" y1="22.176" y2="22.176" stroke-linecap="round" x1="0.35" x2="14.75" fill="none" stroke="#787878"/>
<g id="connector1terminal" height="0" fill="none" x="0.35" y="22.176" width="0"/>
<g transform="matrix(1, 0, 0, 1, 6.8616, 21.1252)">
<text font-family="'DroidSans'" fill="#8C8C8C" font-size="2.5">2</text>
</g>
<g transform="matrix(1, 0, 0, 1, 16.8499, 22.8752)">
<text font-family="'DroidSans'" fill="#787878" font-size="3.5">DATA</text>
</g>
<line id="connector0pin" stroke-width="0.75" y1="7.776" y2="7.776" stroke-linecap="round" x1="50.75" x2="36.35" fill="none" stroke="#787878"/>
<g id="connector0terminal" height="0.001" fill="none" x="50.75" y="7.776" width="0"/>
<g transform="matrix(1, 0, 0, 1, 42.8616, 6.7249)">
<text font-family="'DroidSans'" fill="#8C8C8C" font-size="2.5">1</text>
</g>
<g transform="matrix(1, 0, 0, 1, 27.7542, 8.4749)">
<text font-family="'DroidSans'" fill="#787878" font-size="3.5">ANT</text>
</g>
<line id="connector3pin" stroke-width="0.75" y1="7.776" y2="7.776" stroke-linecap="round" x1="0.35" x2="14.75" fill="none" stroke="#787878"/>
<g id="connector3terminal" height="0.001" fill="none" x="0.35" y="7.776" width="0"/>
<g transform="matrix(1, 0, 0, 1, 6.8616, 6.7249)">
<text font-family="'DroidSans'" fill="#8C8C8C" font-size="2.5">4</text>
</g>
<g transform="matrix(1, 0, 0, 1, 16.8499, 8.4749)">
<text font-family="'DroidSans'" fill="#787878" font-size="3.5">+5V</text>
</g>
</g>
</g></g><g partID='90430'><g transform='translate(205.255,136.324)' ><g transform='matrix(0,1,-1,0,0,0)'  ><g id="schematic" xmlns="http://www.w3.org/2000/svg">
<line id="connector0pin" stroke-width="0.7" xmlns="http://www.w3.org/2000/svg" y1="21.312" y2="14.4" stroke-linecap="round" x1="7.2" x2="7.2" stroke-linejoin="round" fill="none" stroke="#787878"/>
<g id="connector0terminal" height="0.427" xmlns="http://www.w3.org/2000/svg" fill="#787878" x="7.053" y="21.173" width="0.293"/>
<polygon stroke-width="0.9" xmlns="http://www.w3.org/2000/svg" stroke-linecap="round" stroke-linejoin="round" fill="none" stroke="#000000" points="13.912,0.45,7.202,12.077,0.487,0.45"/>
<line id="line" stroke-width="0.9" xmlns="http://www.w3.org/2000/svg" y1="11.57" y2="15.11" stroke-linecap="round" x1="7.203" x2="7.203" stroke-linejoin="round" fill="none" stroke="#000000"/>
<line id="line_1_" stroke-width="0.7" xmlns="http://www.w3.org/2000/svg" y1="0.45" y2="11.883" stroke-linecap="round" x1="7.203" x2="7.203" stroke-linejoin="round" fill="none" stroke="#000000"/>
</g>
</g></g></g><g partID='93250'><g transform='translate(141.145,165.123)' ><g transform='matrix(0,1,-1,0,0,0)'  ><g id="schematic" xmlns="http://www.w3.org/2000/svg">
<path id="connector0pin" stroke-width="0.75" xmlns="http://www.w3.org/2000/svg" stroke-linecap="round" d="M7.201,7.575l0,-7.2" fill="none" stroke="#787878"/>
<g id="connector0terminal" height="0.953" xmlns="http://www.w3.org/2000/svg" fill="none" x="6.728" y="0" width="0.945"/>
<path id="path4098" stroke-width="0.9" xmlns="http://www.w3.org/2000/svg" stroke-linecap="round" d="M0.5,7.711L13.9,7.711" fill="none" stroke="#000000"/>
<path id="path4100" stroke-width="0.9" xmlns="http://www.w3.org/2000/svg" stroke-linecap="round" d="M2.732,10.456l8.935,0" fill="none" stroke="#000000"/>
<path id="path4102" stroke-width="0.9" xmlns="http://www.w3.org/2000/svg" stroke-linecap="round" d="M9.431,13.175L4.967,13.175" fill="none" stroke="#000000"/>
</g>
</g></g></g><g partID='93670'><g transform='translate(47.0679,207.847)' ><g id="schematic" xmlns="http://www.w3.org/2000/svg">
<path id="connector0pin" stroke-width="0.75" xmlns="http://www.w3.org/2000/svg" stroke-linecap="round" d="M7.201,7.575l0,-7.2" fill="none" stroke="#787878"/>
<g id="connector0terminal" height="0.953" xmlns="http://www.w3.org/2000/svg" fill="none" x="6.728" y="0" width="0.945"/>
<path id="path4098" stroke-width="0.9" xmlns="http://www.w3.org/2000/svg" stroke-linecap="round" d="M0.5,7.711L13.9,7.711" fill="none" stroke="#000000"/>
<path id="path4100" stroke-width="0.9" xmlns="http://www.w3.org/2000/svg" stroke-linecap="round" d="M2.732,10.456l8.935,0" fill="none" stroke="#000000"/>
<path id="path4102" stroke-width="0.9" xmlns="http://www.w3.org/2000/svg" stroke-linecap="round" d="M9.431,13.175L4.967,13.175" fill="none" stroke="#000000"/>
</g>
</g></g><g partID='103220'><g transform='translate(154.592,35.524)' ><g transform='matrix(0,-1,1,0,0,0)'  ><g id="schematic" xmlns="http://www.w3.org/2000/svg">
<path id="connector0pin" stroke-width="0.75" xmlns="http://www.w3.org/2000/svg" stroke-linecap="round" d="M7.201,7.575l0,-7.2" fill="none" stroke="#787878"/>
<g id="connector0terminal" height="0.953" xmlns="http://www.w3.org/2000/svg" fill="none" x="6.728" y="0" width="0.945"/>
<path id="path4098" stroke-width="0.9" xmlns="http://www.w3.org/2000/svg" stroke-linecap="round" d="M0.5,7.711L13.9,7.711" fill="none" stroke="#000000"/>
<path id="path4100" stroke-width="0.9" xmlns="http://www.w3.org/2000/svg" stroke-linecap="round" d="M2.732,10.456l8.935,0" fill="none" stroke="#000000"/>
<path id="path4102" stroke-width="0.9" xmlns="http://www.w3.org/2000/svg" stroke-linecap="round" d="M9.431,13.175L4.967,13.175" fill="none" stroke="#000000"/>
</g>
</g></g></g><g partID='93870'><g transform='translate(248.192,121.924)' ><g transform='matrix(0,-1,1,0,0,0)'  ><g id="schematic" xmlns="http://www.w3.org/2000/svg">
<path id="connector0pin" stroke-width="0.75" xmlns="http://www.w3.org/2000/svg" stroke-linecap="round" d="M7.201,7.575l0,-7.2" fill="none" stroke="#787878"/>
<g id="connector0terminal" height="0.953" xmlns="http://www.w3.org/2000/svg" fill="none" x="6.728" y="0" width="0.945"/>
<path id="path4098" stroke-width="0.9" xmlns="http://www.w3.org/2000/svg" stroke-linecap="round" d="M0.5,7.711L13.9,7.711" fill="none" stroke="#000000"/>
<path id="path4100" stroke-width="0.9" xmlns="http://www.w3.org/2000/svg" stroke-linecap="round" d="M2.732,10.456l8.935,0" fill="none" stroke="#000000"/>
<path id="path4102" stroke-width="0.9" xmlns="http://www.w3.org/2000/svg" stroke-linecap="round" d="M9.431,13.175L4.967,13.175" fill="none" stroke="#000000"/>
</g>
</g></g></g><g partID='113080'><g transform='translate(47.0692,14.4)' ><g transform='matrix(-1,0,0,-1,0,0)'  ><g id="schematic" xmlns="http://www.w3.org/2000/svg">
<path id="connector0pin" stroke-width="0.75" xmlns="http://www.w3.org/2000/svg" stroke-linecap="round" d="M7.201,7.575l0,-7.2" fill="none" stroke="#787878"/>
<g id="connector0terminal" height="0.953" xmlns="http://www.w3.org/2000/svg" fill="none" x="6.728" y="0" width="0.945"/>
<path id="path4098" stroke-width="0.9" xmlns="http://www.w3.org/2000/svg" stroke-linecap="round" d="M0.5,7.711L13.9,7.711" fill="none" stroke="#000000"/>
<path id="path4100" stroke-width="0.9" xmlns="http://www.w3.org/2000/svg" stroke-linecap="round" d="M2.732,10.456l8.935,0" fill="none" stroke="#000000"/>
<path id="path4102" stroke-width="0.9" xmlns="http://www.w3.org/2000/svg" stroke-linecap="round" d="M9.431,13.175L4.967,13.175" fill="none" stroke="#000000"/>
</g>
</g></g></g><g partID='98070'><line stroke-linecap='round' stroke='#404040' x1='54.4071' y1='42.7878' x2='75.8687' y2='42.7235' stroke-width='0.699998' /></g><g partID='98080'><line stroke-linecap='round' stroke='#404040' x1='54.2687' y1='49.9235' x2='54.4071' y2='42.7878' stroke-width='0.699998' /></g><g partID='102890'><line stroke-linecap='round' stroke='#404040' x1='111.855' y1='42.6295' x2='103.706' y2='42.7225' stroke-width='0.699998' /></g><g partID='102790'><line stroke-linecap='round' stroke='#404040' x1='97.4686' y1='78.7234' x2='111.936' y2='78.7823' stroke-width='0.699998' /></g><g partID='113260'><line stroke-linecap='round' stroke='#404040' x1='111.936' y1='78.7823' x2='111.855' y2='42.6295' stroke-width='0.699998' /></g><g partID='103280'><line stroke-linecap='round' stroke='#404040' x1='155.171' y1='28.1392' x2='155.069' y2='28.3235' stroke-width='0.699998' /></g><g partID='103290'><line stroke-linecap='round' stroke='#404040' x1='147.869' y1='28.3233' x2='155.171' y2='28.1392' stroke-width='0.699998' /></g><g partID='107990'><line stroke-linecap='round' stroke='#404040' x1='119.069' y1='28.3233' x2='103.706' y2='28.3095' stroke-width='0.699998' /></g><g partID='91660'><line stroke-linecap='round' stroke='#404040' x1='176.669' y1='100.59' x2='219.869' y2='100.324' stroke-width='0.699998' /></g><g partID='108050'><line stroke-linecap='round' stroke='#404040' x1='111.922' y1='122.03' x2='176.669' y2='100.59' stroke-width='0.699998' /></g><g partID='91670'><line stroke-linecap='round' stroke='#404040' x1='97.4687' y1='121.923' x2='111.922' y2='122.03' stroke-width='0.699998' /></g><g partID='91740'><line stroke-linecap='round' stroke='#404040' x1='176.669' y1='114.99' x2='219.869' y2='114.761' stroke-width='0.699998' /></g><g partID='108080'><line stroke-linecap='round' stroke='#404040' x1='111.922' y1='107.523' x2='176.669' y2='114.99' stroke-width='0.699998' /></g><g partID='91750'><line stroke-linecap='round' stroke='#404040' x1='97.4687' y1='107.523' x2='111.922' y2='107.523' stroke-width='0.699998' /></g><g partID='108110'><line stroke-linecap='round' stroke='#404040' x1='111.922' y1='114.777' x2='97.4688' y2='114.723' stroke-width='0.699998' /></g><g partID='91820'><line stroke-linecap='round' stroke='#404040' x1='176.669' y1='129.39' x2='111.922' y2='114.777' stroke-width='0.699998' /></g><g partID='91830'><line stroke-linecap='round' stroke='#404040' x1='219.869' y1='129.261' x2='176.669' y2='129.39' stroke-width='0.699998' /></g><g partID='92390'><line stroke-linecap='round' stroke='#404040' x1='97.7359' y1='143.79' x2='133.469' y2='143.523' stroke-width='0.699998' /></g><g partID='92400'><line stroke-linecap='round' stroke='#404040' x1='97.4687' y1='143.523' x2='97.7356' y2='143.79' stroke-width='0.699998' /></g><g partID='92650'><line stroke-linecap='round' stroke='#404040' x1='126.269' y1='157.923' x2='140.669' y2='157.923' stroke-width='0.699998' /></g><g partID='92590'><line stroke-linecap='round' stroke='#404040' x1='97.4687' y1='150.723' x2='126.269' y2='157.923' stroke-width='0.699998' /></g><g partID='92600'><line stroke-linecap='round' stroke='#404040' x1='97.4687' y1='150.723' x2='97.4687' y2='150.723' stroke-width='0.699998' /></g><g partID='93560'><line stroke-linecap='round' stroke='#404040' x1='140.669' y1='172.323' x2='140.669' y2='172.323' stroke-width='0.699998' /></g><g partID='93700'><line stroke-linecap='round' stroke='#404040' x1='54.2687' y1='208.323' x2='54.2684' y2='208.324' stroke-width='0.699998' /></g><g partID='93920'><line stroke-linecap='round' stroke='#404040' x1='247.035' y1='114.803' x2='248.669' y2='114.724' stroke-width='0.699998' /></g><g partID='94230'><line stroke-linecap='round' stroke='#404040' x1='183.869' y1='143.523' x2='183.869' y2='143.524' stroke-width='0.699998' /></g><g partID='113110'><line stroke-linecap='round' stroke='#404040' x1='39.8687' y1='21.1235' x2='39.8687' y2='13.9235' stroke-width='0.699998' /></g><g partID='113180'><line stroke-linecap='round' stroke='#404040' x1='39.7556' y1='50.101' x2='39.8686' y2='49.9235' stroke-width='0.699998' /></g><g partID='113190'><line stroke-linecap='round' stroke='#404040' x1='39.8687' y1='49.9237' x2='39.7556' y2='50.101' stroke-width='0.699998' /></g><g partID='57860' id='partLabel'><g transform='translate(2.27374e-14,96.4001)' ><g transform='matrix(-4.44089e-16,-1,1,-4.44089e-16,0,0)'  ><g font-size='5' font-style='normal' font-weight='normal' fill='#000000' font-family="'DroidSans'" id='schematicLabel' fill-opacity='1' stroke='none' ><text x='0' y='3.75'>Arduino Nano Rev 3</text></g></g></g></g><g partID='58210' id='partLabel'><g transform='translate(218.688,85.2186)' ><g transform='matrix(1,0,0,1,0,0)'  ><g font-size='5' font-style='normal' font-weight='normal' fill='#000000' font-family="'DroidSans'" id='schematicLabel' fill-opacity='1' stroke='none' ><text x='0' y='3.75'>LED Strip</text></g></g></g></g><g partID='89750' id='partLabel'><g transform='translate(148.61,185.26)' ><g font-size='5' font-style='normal' font-weight='normal' fill='#000000' font-family="'DroidSans'" id='schematicLabel' fill-opacity='1' stroke='none' ><text x='0' y='3.75'>AM Reciever</text></g></g></g><g partID='90430' id='partLabel'><g transform='translate(187.213,153.597)' ><g transform='matrix(1,0,0,1,0,0)'  ><g font-size='5' font-style='normal' font-weight='normal' fill='#000000' font-family="'DroidSans'" id='schematicLabel' fill-opacity='1' stroke='none' ><text x='0' y='3.75'>Antenna</text></g></g></g></g><g partID='97070' id='partLabel'><g transform='translate(118.871,11.8032)' ><g font-size='5' font-style='normal' font-weight='normal' fill='#000000' font-family="'DroidSans'" id='schematicLabel' fill-opacity='1' stroke='none' ><text x='0' y='3.75'>R1</text><text x='0' y='8.75'>220&#x3a9;</text></g></g></g><g partID='97610' id='partLabel'><g transform='translate(75.1165,18.2824)' ><g transform='matrix(1,0,0,1,0,0)'  ><g font-size='5' font-style='normal' font-weight='normal' fill='#000000' font-family="'DroidSans'" id='schematicLabel' fill-opacity='1' stroke='none' ><text x='0' y='3.75'>Button 1</text></g></g></g></g><g partID='110250' id='partLabel'><g transform='translate(12.3976,20.5934)' ><g font-size='5' font-style='normal' font-weight='normal' fill='#000000' font-family="'DroidSans'" id='schematicLabel' fill-opacity='1' stroke='none' ><text x='0' y='3.75'>VCC1</text><text x='0' y='8.75'>9V</text></g></g></g></svg>